<svg xmlns="http://www.w3.org/2000/svg" width="128" height="128" fill="none"><path fill="#0E1017" d="M46.348 75.04 63.83 33.706c.076-.16.116-.342.12-.518 0-.18-.03-.357-.095-.522a1.4 1.4 0 0 0-.296-.443 1.2 1.2 0 0 0-.448-.286 1.5 1.5 0 0 0-.523-.106H19.842c-.277-.02-.558.05-.79.201a1.34 1.34 0 0 0-.523.628l-6.795 16.374a1.33 1.33 0 0 0 .287 1.478q.197.187.448.286c.16.07.337.106.513.106h20.701a1.316 1.316 0 0 1 1.313 1.317q0 .271-.106.527L17.634 94.294a1.33 1.33 0 0 0 .287 1.488q.195.189.452.286c.161.07.337.106.513.106h45.301c.282.02.559-.055.795-.206.236-.15.417-.372.518-.638l6.855-16.534a1.31 1.31 0 0 0-.794-1.72 1.3 1.3 0 0 0-.513-.105H47.59a1.316 1.316 0 0 1-1.313-1.317 1.4 1.4 0 0 1 .08-.619z"/><path fill="#0E1017" d="M56.472 71.304h18.006a1.3 1.3 0 0 0 1.247-.824l7.881-18.74a1.3 1.3 0 0 1 1.247-.825h23.222c.276.02.553-.05.789-.201.237-.151.418-.367.524-.629l6.724-16.373q.114-.25.116-.523a1.315 1.315 0 0 0-.855-1.251 1.3 1.3 0 0 0-.513-.106H71.762c-.277-.02-.559.05-.79.201a1.34 1.34 0 0 0-.523.628L55.144 69.46a1.3 1.3 0 0 0-.12.518q-.001.273.095.523a1.32 1.32 0 0 0 .744.729 1.5 1.5 0 0 0 .594.08z"/></svg>