<svg xmlns="http://www.w3.org/2000/svg" width="2220" height="415.524" viewBox="0 0 740 138.508"><g fill="none" stroke-linecap="round"><path stroke="#b2f2bb" stroke-width=".5" d="M490 10q0 0 0 0m0 0q0 0 0 0m-.26 6.4c1.19-1.99 3.43-3.38 5.25-6.04m-5.25 6.04c1.45-1.54 2.8-3.27 5.25-6.04m-4.86 11.68c3.95-3.88 4.94-6.31 10.5-12.07m-10.5 12.07c2.3-2.49 4.43-4.98 10.5-12.07m-10.76 18.47c3.18-3.8 4.64-5.91 15.75-18.11m-15.75 18.11c2.89-4.15 5.54-8.36 15.75-18.11m-15.35 23.75c6.6-6.23 13.44-11.73 20.99-24.15m-20.99 24.15c3.48-4.47 9.67-9.5 20.99-24.15M490 40.48c11.12-8.92 18.96-22.21 26.25-30.19M490 40.48c7.22-7.77 13.21-15.64 26.25-30.19m-26.51 36.59c13-16.2 27.49-27.54 32.15-36.98m-32.15 36.98c10.92-12.46 20.85-23.55 32.15-36.98m-29.78 40.36c10.17-11.93 17.96-21.34 34.77-40m-34.77 40c8.38-10.2 15.68-18.62 34.77-40m-29.79 40.36c12.89-13.09 23.48-29.78 35.43-40.76m-35.43 40.76c8.94-10 16.39-19.14 35.43-40.76m-29.78 40.36c10.77-11.36 22.2-25.12 34.77-40m-34.77 40c14.55-15.49 28.82-30.4 34.77-40m-29.79 40.36c14.58-16.31 26.57-27.51 35.43-40.75m-35.43 40.75c9.18-10.61 18.16-19.88 35.43-40.75m-29.78 40.36c9.08-9.66 20.45-22.77 34.77-40m-34.77 40c8.06-8.66 15.39-16.2 34.77-40m-29.79 40.36c15.93-17.24 28.07-32.92 35.43-40.76m-35.43 40.76C530 39.06 540.54 25.4 553.78 9.79M524 50.15c12.42-12.78 24.59-29.72 34.77-40m-34.77 40c10.28-11.78 19.79-22.48 34.77-40m-29.79 40.36c7.97-10.28 17.76-21.82 35.43-40.75m-35.43 40.75c6.27-7.79 14.92-15.79 35.43-40.75m-30.44 41.11c7.05-9.96 18.85-18.96 35.43-40.75m-35.43 40.75c13.4-13.89 24.76-29.84 35.43-40.75m-29.79 40.36c11.95-13.06 23.43-27.76 35.43-40.76m-35.43 40.76c14.34-16.97 28.05-32.32 35.43-40.76M544.6 50.84c12.7-15.79 26.48-30.54 35.43-40.76M544.6 50.84c10.95-12.95 23.83-25.82 35.43-40.76m-29.79 40.36c11.15-10.14 20.26-20.78 35.43-40.75m-35.43 40.75c12.95-14.98 26.36-29.89 35.43-40.75M555.23 50.8c10.94-11.99 19.99-25.89 35.43-40.75M555.23 50.8c7.34-8.37 16.17-19.11 35.43-40.75m-29.79 40.36C576.59 35.84 590 20.3 596.3 9.66m-35.43 40.75c9.78-11.62 21.08-22.88 35.43-40.75m-30.44 41.11c10.31-9.1 17.12-17.7 35.43-40.75m-35.43 40.75c9.81-10.09 17.82-21.72 35.43-40.75M571.5 50.37c13.61-14.07 25.89-28.93 34.77-39.99M571.5 50.37c11.52-13.54 20.96-25.19 34.77-39.99m-29.78 40.35c9.12-12.03 20-22.63 34.12-39.24m-34.12 39.24c12.35-15.7 25.1-29.38 34.12-39.24m-28.48 38.85c10.94-11.45 18.62-22.12 28.21-32.45m-28.21 32.45c7.99-8.44 17.06-18.93 28.21-32.45M587.12 50.7c6.22-9.2 15.86-15.9 22.96-26.41M587.12 50.7c5.39-5.12 10.1-12.08 22.96-26.41m-17.32 26.02c2.81-5.88 8.76-10.34 17.72-20.38m-17.72 20.38c4.1-6.18 9.25-11.66 17.72-20.38m-12.73 20.74c4.85-3.53 6.55-6.7 12.47-14.34m-12.47 14.34c2.62-2.83 5.98-6.46 12.47-14.34m-6.83 13.94c3.49-2.57 5.38-5.67 7.22-8.3m-7.22 8.3c1.53-2.59 3.48-4.2 7.22-8.3m-2.23 8.66c.5-.51 1.4-1.67 1.97-2.26m-1.97 2.26c.4-.53.84-1.07 1.97-2.26"/><path stroke="transparent" d="M490 10c34.61 1.75 70.81-1.02 120 0m-120 0c25.75-1.34 50.98-1.67 120 0m0 0c0 13.32.36 28.06 0 40m0-40c-.38 9.85-.73 20.72 0 40m0 0c-22.61 1.04-48.28-1.74-120 0m120 0c-26.76.96-53.17 1.78-120 0m0 0c1.39-10.22 1.88-18.89 0-40m0 40c.18-7.61-.56-15.69 0-40"/></g><g fill="none" fill-rule="evenodd" stroke-linecap="round"><path stroke="#40c057" stroke-width=".5" d="M650 88.13q0 0 0 0m0 0q0 0 0 0m3.02 2.62c.68-.88 1.22-1.7 1.97-2.26m-1.97 2.26c.41-.63 1.01-1.02 1.97-2.26m.39 5.64c1.56-1.96 3.11-2.88 5.25-6.03m-5.25 6.03c.83-1.47 2.02-3.1 5.25-6.03m-2.23 8.66c1.59-2.06 2.83-3.8 7.22-8.3m-7.22 8.3c1.88-2.14 3.72-4.48 7.22-8.3m-4.2 10.92c1.7-1.95 6.51-5.73 9.84-11.32m-9.84 11.32c2.93-2.66 5.33-6.11 9.84-11.32m-6.82 13.95c4.78-2.51 7.68-9.56 11.81-13.59m-11.81 13.59c4.41-5.14 8.41-9.12 11.81-13.59m-9.45 16.96c4.38-7.24 10.09-13.47 15.09-17.35m-15.09 17.35c5.37-6.21 9.1-9.7 15.09-17.35m-29.78 40.36c3.98-3.2 6.36-7.37 8.52-9.81m-8.52 9.81c1.58-2.18 3.11-3.75 8.52-9.81m9.19-10.57c6.72-7.75 10.93-13.48 17.06-19.62m-17.06 19.62c5.69-7.5 12.57-15.73 17.06-19.62m-29.79 40.36c10.85-10.66 20.95-22.79 35.43-40.76m-35.43 40.76c10.23-12.3 19.98-24.14 35.43-40.76m-29.78 40.36c8.2-9.26 17.96-19.46 34.77-40m-34.77 40c7.64-10.67 16.96-18.92 34.77-40m-29.79 40.36c8.24-13.07 18.84-22.52 35.43-40.75m-35.43 40.75c12.01-13.72 25.99-28.62 35.43-40.75m-29.78 40.36c7.55-8.58 15.68-18.69 34.77-40m-34.77 40c8.75-9.53 16.82-21 34.77-40m-29.79 40.36c9.92-7.3 13.92-19.17 33.46-38.49m-33.46 38.49c8.11-9.01 14.88-16.98 33.46-38.49M684 128.28c12.71-11.96 21.52-26.61 30.83-35.47M684 128.28c10.08-11.04 17.54-20.35 30.83-35.47m-25.85 35.83c6.18-7.89 12.72-13.84 28.87-33.2m-28.87 33.2c10.96-13.21 22.77-25.37 28.87-33.2M693.97 129c5.5-9.45 13.28-17.04 26.24-30.19M693.97 129c8.01-8.53 13.58-15.09 26.24-30.19m-20.6 29.8c7.32-6.99 11.87-14.95 23.62-27.17m-23.62 27.17c8.81-11.52 19.35-21.23 23.62-27.17m-18.63 27.53c7.79-8.37 16.95-17.54 21.65-24.91m-21.65 24.91c7.25-8.87 14.36-16.58 21.65-24.91m-16.01 24.51c3.88-5.46 10.9-10.17 19.03-21.88m-19.03 21.88c5.51-5.26 9.26-10.17 19.03-21.88m-79.45 21.28q0 0 0 0m0 0q0 0 0 0m6.39.26c-1.06-.78-1.63-2.02-3.01-2.62m3.01 2.62c-1.15-1.17-2.16-1.96-3.01-2.62m8.66 2.23c-2.1-1.12-3.49-4.01-6.04-5.25m6.04 5.25c-1.47-1.27-2.88-2.62-6.04-5.25m12.44 5.51c-3.22-2.85-6.77-5.76-9.82-8.53m9.82 8.53c-2.33-2.43-4.48-3.58-9.82-8.53m16.21 8.79c-5.61-3.27-11.41-8.04-13.58-11.81m13.58 11.81c-2.71-3.81-7.67-5.75-13.58-11.81m19.23 11.42c-4.48-4.11-10.97-9.52-15.85-13.78m15.85 13.78c-3.04-2.52-8.12-7.24-15.85-13.78m22.24 14.04c-5.93-7.41-16.45-12.8-19.62-17.06m19.62 17.06c-4.72-4.46-8.63-8.34-19.62-17.06m25.27 16.66c-3.17-4.74-9.78-8.12-22.64-19.68m22.64 19.68c-10.04-8.51-17.83-15.69-22.64-19.68m29.04 19.94c-11.99-13.36-26.51-24.61-46.8-40.67m46.8 40.67c-11.12-9.88-21.74-19.04-46.8-40.67m53.19 40.94c-10-10.43-20.66-17.81-46.79-40.68m46.79 40.68c-11.09-10.52-23.94-21.48-46.79-40.68m52.44 40.28c-9.68-10.93-22.26-18.53-46.8-40.67m46.8 40.67c-11.67-10.57-24.74-22.58-46.8-40.67m49.42 37.65c-9.04-7.07-18.78-14.56-43.02-37.39m43.02 37.39c-12.59-11.48-25.7-21.73-43.02-37.39m45.64 34.37c-14.16-11.44-25.94-24.81-39.24-34.11m39.24 34.11c-10.7-10.05-24.23-19.95-39.24-34.11m41.87 31.09c-7.7-8.76-20.93-17.93-36.23-31.49m36.23 31.49c-12.04-8.8-22.52-19.01-36.23-31.49m39.61 29.13c-9.14-8.96-20.15-18.89-33.21-28.86m33.21 28.86c-7.44-7.25-14.82-13-33.21-28.86m35.83 25.84c-9.01-9.14-20.63-17.54-30.19-26.24m30.19 26.24c-8.02-7.39-17.58-16.21-30.19-26.24m32.82 23.22c-8.35-7.15-17.8-15.98-26.42-22.96m26.42 22.96c-6.76-4.88-13.85-11.28-26.42-22.96m29.04 19.95c-5.1-3.98-12.93-10.03-22.64-19.69m22.64 19.69c-7.6-7.05-15.16-13.43-22.64-19.69"/><path stroke="#1e1e1e" d="M650 88.13c3.67 5.74 7.68 8.07 20 20m-20-20c7.43 7.74 13.58 13.75 20 20m0 0c-6.05 5.14-14.73 14.49-20 20m20-20c-6.19 6.31-12.15 12.59-20 20m0 0c18.12-1.71 36.04 1.39 60 0m-60 0c21.04 1.08 43.01-.56 60 0m0 0c7.64-6.97 13.05-11.4 20-20m-20 20c7.99-8.48 15.86-15.7 20-20m0 0c-5.48-4.95-14.65-12.47-20-20m20 20c-5.33-5.88-12.25-10.67-20-20m0 0c-12.41-.62-25.16 1.28-60 0m60 0c-15.5-.42-32.92.63-60 0m0 0q0 0 0 0m0 0q0 0 0 0"/></g><g fill="none" fill-rule="evenodd" stroke-linecap="round"><path stroke="#40c057" stroke-width=".5" d="M10 88.154q0 0 0 0m0 0q0 0 0 0m3.02 2.62c.54-.79 1.4-1.61 1.97-2.26m-1.97 2.26c.38-.65 1.05-1 1.97-2.26m.39 5.64c2.27-2.06 4.56-4.71 5.25-6.03m-5.25 6.03c1.52-1.71 3.8-3.83 5.25-6.03m-2.23 8.66c.72-1.63 2.61-3.71 7.22-8.3m-7.22 8.3c2.1-3.54 5.16-6.7 7.22-8.3m-4.2 10.92c2.93-2.36 4.62-7.15 9.84-11.32m-9.84 11.32c3.76-3.92 7.83-8.72 9.84-11.32m-6.82 13.95c2.23-4.09 5.75-8.29 11.81-13.59m-11.81 13.59c3.32-4.32 7.64-9.78 11.81-13.59m-9.45 16.96c4.26-6.8 8.6-11.1 15.09-17.35m-15.09 17.35c4.07-3.5 7.5-7.42 15.09-17.35m-29.78 40.36c2.54-2.46 4.31-5.91 8.52-9.81m-8.52 9.81c2.35-2.34 4.08-4.18 8.52-9.81m9.19-10.57c8.73-8.49 11.65-13.92 17.06-19.62m-17.06 19.62c6.62-7.07 10.37-12.96 17.06-19.62m-29.79 40.36c8.54-12.29 19.91-20.25 35.43-40.76m-35.43 40.76c10.2-10.81 19.26-21.27 35.43-40.76m-29.78 40.36c7.08-8.37 15.68-18.14 34.77-40m-34.77 40c8.47-8.04 17.24-19.19 34.77-40m-29.79 40.36c7.6-8.28 15.45-19.03 35.43-40.75m-35.43 40.75c9.89-11.54 21.65-25.15 35.43-40.75m-29.78 40.36c10.17-8.53 17.31-22.16 34.77-40m-34.77 40c12.88-14 24.44-27.97 34.77-40m-29.79 40.36c12.4-15.08 24.09-28.27 33.46-38.49m-33.46 38.49c11.16-14.5 23.09-27.77 33.46-38.49M44 128.304c5.59-6.27 13.02-17.31 30.83-35.47M44 128.304c10.71-11.81 21.69-24.96 30.83-35.47m-25.85 35.83c6.38-8.91 11.92-14.49 28.87-33.2m-28.87 33.2c9.13-10.92 19.02-21.15 28.87-33.2m-23.88 33.56c9.85-10.4 16.85-21.03 26.24-30.19m-26.24 30.19c9.01-11.67 19.46-21.64 26.24-30.19m-20.6 29.8c7.56-6.67 15.08-17.03 23.62-27.17m-23.62 27.17c8.7-10.2 17.82-22.01 23.62-27.17m-18.63 27.53c7.67-6.51 12.88-15.2 21.65-24.91m-21.65 24.91c5.58-6.02 8.93-10.15 21.65-24.91m-16.01 24.51c8.81-9.87 14.71-18.81 19.03-21.88m-19.03 21.88c5.96-8.36 13.35-14.54 19.03-21.88m-79.45 21.28q0 0 0 0m0 0q0 0 0 0m6.39.26c-.74-.67-1.77-1.24-3.01-2.62m3.01 2.62c-1.08-1-2.07-2-3.01-2.62m8.66 2.23c-2.36-1.21-5.12-4.48-6.04-5.25m6.04 5.25c-2.21-1.55-3.87-3.44-6.04-5.25m12.44 5.51c-4.02-1.93-5.27-6.39-9.82-8.53m9.82 8.53c-2.09-1.48-5.29-4.54-9.82-8.53m16.21 8.79c-4.56-4.47-9.78-7.45-13.58-11.81m13.58 11.81c-2.61-1.95-6.31-5.39-13.58-11.81m19.23 11.42c-6.51-5.96-11.2-7.81-15.85-13.78m15.85 13.78c-5.61-4.06-10.93-9.22-15.85-13.78m22.24 14.04c-4.63-4.42-9.65-8.64-19.62-17.06m19.62 17.06c-4.63-3.06-8.24-6.62-19.62-17.06m25.27 16.66c-9.16-4.86-14.64-13.42-22.64-19.68m22.64 19.68c-6.12-4.44-11.59-9.92-22.64-19.68m29.04 19.94c-19.74-15.4-35.7-32.95-47.55-41.33m47.55 41.33c-10.38-8.29-19.37-17.48-47.55-41.33m53.94 41.6c-18.27-14.63-35.61-31.35-47.54-41.34m47.54 41.34c-12.77-12.08-26.38-22.41-47.54-41.34m53.19 40.94c-12.94-9.58-25-24.15-47.55-41.33m47.55 41.33c-17.79-14.02-33.9-30.63-47.55-41.33m50.17 38.31c-10.6-10.54-20.17-18.42-43.77-38.05m43.77 38.05c-16.5-13.07-31.26-26.75-43.77-38.05m46.39 35.03c-12.57-11.35-28.57-23.13-40.75-35.42m40.75 35.42c-10.02-9.19-22.09-19.25-40.75-35.42m43.38 32.4c-9.65-8.98-22.74-20.23-36.98-32.14m36.98 32.14c-6.88-5.58-14.58-12.01-36.98-32.14m40.36 29.78c-9.46-10.01-19.72-20.19-33.96-29.52m33.96 29.52c-9.91-8.37-20.37-18.46-33.96-29.52m36.58 26.5c-9.22-8.84-20.48-17.49-30.94-26.9m30.94 26.9c-6.96-7.02-15.41-12.51-30.94-26.9m33.57 23.88c-6.09-4.87-10.97-9.74-27.17-23.61m27.17 23.61c-11.16-10.13-22-18.41-27.17-23.61m29.79 20.6c-6.15-7.04-12.14-10.05-24.15-21m24.15 21c-5.73-5.64-11.98-10.35-24.15-21"/><path stroke="#1e1e1e" d="M10 88.154c6.91 7.2 16.61 16.44 20 20m-20-20c4.4 5.29 8.74 9.49 20 20m0 0c-5.7 7.93-15.52 15.69-20 20m20-20c-4.94 4.9-7.94 8.24-20 20m0 0c22.17.75 43.31-1.71 60 0m-60 0c21.68-.49 43.99-.84 60 0m0 0c6.62-6.33 14.85-16.4 20-20m-20 20c7.33-8.43 15.57-15.35 20-20m0 0c-6.28-5.87-13.54-13.06-20-20m20 20c-6.71-7.5-14.37-13.79-20-20m0 0c-23.39-.45-44.93.25-60 0m60 0c-17.27-.27-36.18.21-60 0m0 0q0 0 0 0m0 0q0 0 0 0"/></g><g fill="none" stroke-linecap="round"><path stroke="#b2f2bb" stroke-width=".5" d="M130 10q0 0 0 0m0 0q0 0 0 0m-.26 6.4c2.2-1.61 2.67-3.03 5.25-6.04m-5.25 6.04c1.48-1.03 2.5-2.44 5.25-6.04m-4.86 11.68c3.85-3.74 6.76-7.83 10.5-12.07m-10.5 12.07c4.23-3.43 6.84-8.63 10.5-12.07m-10.76 18.47c4.12-4.61 9.77-12.11 15.75-18.11m-15.75 18.11c6.69-6.36 12.39-13.4 15.75-18.11m-15.35 23.75c5.39-6.46 8.74-12 20.99-24.15m-20.99 24.15c7.51-9.73 15.61-19.12 20.99-24.15M130 40.48c10.28-9.11 18.77-21.91 26.25-30.19M130 40.48c8.09-8.88 15.15-15.57 26.25-30.19m-26.51 36.59c10.61-11.7 18.62-21.81 32.15-36.98m-32.15 36.98c10.86-13.43 23.48-25.46 32.15-36.98m-29.78 40.36c10.89-12.84 18.53-21.65 34.77-40m-34.77 40c12.77-15.54 25.59-28.87 34.77-40m-29.79 40.36c12.69-15.16 25.35-28.77 35.43-40.76m-35.43 40.76c10.67-12.73 20.34-25.19 35.43-40.76m-29.78 40.36c11.89-14.2 24.92-29.13 34.77-40m-34.77 40c11.82-14.3 23.06-27.75 34.77-40m-29.79 40.36c6.27-8.15 16.16-16.39 35.43-40.75m-35.43 40.75c8.22-8.24 15.46-16.86 35.43-40.75m-29.78 40.36c11.88-15.35 27.15-28.69 34.77-40m-34.77 40c11.43-12.39 20.91-25.19 34.77-40m-29.79 40.36c10.24-9.47 20.41-20.62 35.43-40.76m-35.43 40.76c10.78-14.05 22.94-26.66 35.43-40.76M164 50.15c9.97-9.23 18.67-19.93 34.77-40m-34.77 40c11.61-14.77 25.11-28.33 34.77-40m-29.79 40.36c8.6-8.79 18.52-18.56 35.43-40.75m-35.43 40.75c8.91-9.6 17.27-21.47 35.43-40.75m-30.44 41.11c6.49-8.31 16.86-18.07 35.43-40.75m-35.43 40.75c13.91-15.79 27.55-31.13 35.43-40.75m-29.79 40.36c15.62-17.96 26.54-33.75 35.43-40.76m-35.43 40.76c9.15-9.15 16.88-18.65 35.43-40.76M184.6 50.84c11.7-13.38 25.39-30.14 35.43-40.76M184.6 50.84c9.97-13.36 20.52-25.3 35.43-40.76m-29.79 40.36c11.66-15.35 25.45-27.7 35.43-40.75m-35.43 40.75c9.38-10.68 19.97-22.15 35.43-40.75M195.23 50.8c13.85-16.32 23.79-30.3 35.43-40.75M195.23 50.8c15.01-16.22 27.89-31.62 35.43-40.75m-29.79 40.36c9.68-10.21 18.25-21.03 35.43-40.75m-35.43 40.75c7.53-8.37 16.43-19.19 35.43-40.75m-30.44 41.11c7.02-7.64 16.03-15.25 35.43-40.75m-35.43 40.75c13.69-14.96 26.6-31.17 35.43-40.75M211.5 50.37c9.08-11.32 18.28-21.52 34.77-39.99M211.5 50.37c9.97-12.31 20.09-24.03 34.77-39.99m-29.78 40.35c11.14-13.76 21.73-25.76 35.43-40.75m-35.43 40.75c13.5-14.8 25.68-31.05 35.43-40.75m-29.79 40.36c8.48-7.06 15.75-16.94 34.78-40m-34.78 40c12.59-13.33 25.3-29.18 34.78-40M227.12 50.7c9.54-10.45 19.25-23.33 35.43-40.75M227.12 50.7c8.96-11.3 19.26-23.7 35.43-40.75m-29.79 40.36c9.76-11.63 17.65-24.16 34.78-40m-34.78 40c8.53-7.63 14.93-17.19 34.78-40m-29.79 40.36c9.03-13.41 20.26-25.54 35.43-40.76m-35.43 40.76c8.32-9.88 15.37-18.69 35.43-40.76m-29.79 40.36c7.64-9.82 14.28-18.76 34.78-40m-34.78 40c12.24-14.6 24.71-27.06 34.78-40m-29.79 40.36c10.63-9.52 19.2-20.95 35.43-40.75m-35.43 40.75c10.8-13.14 22.1-25.93 35.43-40.75m-29.79 40.36c12.32-14.98 24.43-28.69 34.78-40m-34.78 40c13.25-13.47 25.3-28.77 34.78-40M259.01 50.6c10.31-13.66 22.78-28.47 31.49-36.23M259.01 50.6c10.09-11.11 17.83-22.18 31.49-36.23M264.65 50.2c8.58-10.4 17.53-20.1 25.59-29.43M264.65 50.2c9.64-10.87 17.17-21.17 25.59-29.43m-20.6 29.79c7.38-6.83 13.03-14.48 20.34-23.39m-20.34 23.39c4.49-7.24 11.36-11.76 20.34-23.39m-14.7 23c4.1-5.45 8.98-11.98 15.09-17.36m-15.09 17.36c5.59-6.02 9.14-10.36 15.09-17.36m-10.1 17.72c3.97-4.53 5.31-6 9.84-11.32m-9.84 11.32c2.97-4.87 6.89-7.97 9.84-11.32m-4.2 10.92c1.96-2.18 2.73-3.34 4.6-5.28m-4.6 5.28c1.48-2.31 3.21-3.97 4.6-5.28"/><path stroke="transparent" d="M130 10c33.85 1.62 64.93 0 160 0m-160 0c36.62.48 73.3-.62 160 0m0 0c1.16 10.49.73 18.5 0 40m0-40c.99 13.23.3 28.42 0 40m0 0c-59.13 1.24-119.38 2.52-160 0m160 0c-49.67.51-99.96-.65-160 0m0 0c.93-13.93.83-32.53 0-40m0 40c.78-12.34-.42-22.84 0-40"/></g><path fill="none" stroke="#1e1e1e" stroke-linecap="round" d="M130 10c45.92-1.33 91.35-1.18 160 0m-160 0c51.38-1.65 103.81-.58 160 0m0 0c.71 27.51 1.39 55.23 0 80m0-80c.77 18.75 1.37 36.7 0 80m0 0c-54.7 2.39-108.2.59-160 0m160 0c-48.52-.08-97.02 1.48-160 0m0 0c.65-25.34-.63-47.5 0-80m0 80c-1.03-26.97-1.34-55.53 0-80"/><path fill="none" stroke="#1e1e1e" stroke-linecap="round" d="M130 50c58.24.11 119.75-.81 160 0m-160 0c61.82 1.18 125.49.71 160 0"/><path fill="none" stroke="#1e1e1e" stroke-linecap="round" d="M210.952 30c-.15 16.56.85 33.24-.95 60m.95-60c-.31 17.27-.26 33.91-.95 60m-39.175-80c1.78 22.15-.66 46.39-.83 80m.83-80c.71 31.17-.15 62.49-.83 80"/><path fill="none" stroke="#1e1e1e" stroke-linecap="round" d="M170 30c29.96-.4 62.43 1.86 120 0m-120 0c41.06.3 82.22-.91 120 0"/><path fill="none" stroke="#1e1e1e" stroke-linecap="round" d="M251.238 30c1.43 13.46.3 26.77-.95 60m.95-60c.25 18.47.31 37.41-.95 60m21.177-60c1.12 15.03.47 27.58-.95 60m.95-60c.75 20.29-.28 42.53-.95 60m-39.277-60c.3 20.73.66 41.65-.95 60m.95-60c.39 14.1.76 27.41-.95 60m-38.85-60c.82 23.15-1.95 46.13-.95 60m.95-60c.59 12.26.06 25.55-.95 60"/><g fill="none" stroke-linecap="round"><path stroke="#b2f2bb" stroke-width=".5" d="M330 10q0 0 0 0m0 0q0 0 0 0m-.26 6.4c1.08-2.52 2.41-2.91 5.25-6.04m-5.25 6.04c1.75-2.03 3.35-3.45 5.25-6.04m-4.86 11.68c1.21-4.39 4.08-7.23 10.5-12.07m-10.5 12.07c2.79-2.49 5.53-6.77 10.5-12.07m-10.76 18.47c4.05-3 7.15-6.79 15.75-18.11m-15.75 18.11c5.93-6.27 12.86-13.75 15.75-18.11m-13.39 21.49c5.45-7.94 10.29-13.76 19.03-21.89m-19.03 21.89c6.44-5.87 11.99-12.86 19.03-21.89m-14.04 22.25c5.59-8.49 14.35-16.75 19.03-21.89m-19.03 21.89c4.76-4.64 8.78-9.49 19.03-21.89m-13.39 21.49c6.54-7.1 15.07-16.87 19.03-21.88m-19.03 21.88c7.96-7.64 15.4-17.64 19.03-21.88m-14.04 22.24c8.77-8.78 12.71-18.25 19.03-21.88m-19.03 21.88c6.92-6.77 13.15-14.31 19.03-21.88m-13.39 21.49c4.18-5.36 9.24-7.25 19.03-21.89m-19.03 21.89c6.13-8.89 13.32-16.91 19.03-21.89m-14.04 22.25c6.66-6.67 12.74-12.23 19.03-21.89m-19.03 21.89c7.38-7.49 13.06-16 19.03-21.89m-13.39 21.49c3.12-7.44 8.83-10.63 19.03-21.88m-19.03 21.88c4.79-5.86 11.11-12.29 19.03-21.88m-14.04 22.24c6.7-4.77 11.39-11.82 19.03-21.88m-19.03 21.88c6.66-9.38 14.5-16.7 19.03-21.88m-13.39 21.49c3.35-5.72 8.82-9.93 19.03-21.89m-19.03 21.89c7.45-8.58 14.64-16.63 19.03-21.89m-14.04 22.25c7.32-5.75 9.78-14.63 19.03-21.89m-19.03 21.89c5.53-5.14 11.04-11.18 19.03-21.89m-13.39 21.5c7.71-8.53 13.33-16.16 19.03-21.89m-19.03 21.89c5.21-6.62 10.99-12.25 19.03-21.89m-14.04 22.25c6.03-8.21 12.92-15.46 19.03-21.89m-19.03 21.89c5.18-6.59 11.25-13.3 19.03-21.89m-13.38 21.49c5.86-7.82 8.95-13.46 19.02-21.89m-19.02 21.89c5.98-5.69 10.58-11.83 19.02-21.89M401 31.97c7.34-5.99 10-12.8 19.03-21.89M401 31.97c7.68-8.51 14.11-16.04 19.03-21.89m-13.38 21.5c7.41-8.68 12.36-15.67 19.02-21.89m-19.02 21.89c3.97-5.86 7.52-10.7 19.02-21.89m-14.04 22.25c6.69-6.11 9.7-11.87 19.03-21.89m-19.03 21.89c5.87-7.68 12.37-15.63 19.03-21.89m-13.38 21.49c3.92-7.41 9.83-13.34 19.02-21.88m-19.02 21.88c6.81-8.92 14.06-15.73 19.02-21.88M422.26 31.9c5.84-6.73 16.08-17.92 19.03-21.88M422.26 31.9c6.05-6.09 11.15-12.76 19.03-21.88m-14.04 22.24c6.64-8.31 13.67-13.19 19.02-21.88m-19.02 21.88c7.3-9.01 15.24-16.13 19.02-21.88m-13.38 21.49c7.37-5.85 11.13-11.86 18.37-21.13m-18.37 21.13c6.37-7.58 12.2-14.97 18.37-21.13m-13.38 21.49c3.32-5.99 6.38-8.1 13.12-15.1m-13.12 15.1c4.22-5.04 8.8-9.41 13.12-15.1m-7.48 14.7c1.04-3.05 2.75-4.53 7.88-9.05m-7.88 9.05c2.83-2.9 5.43-7 7.88-9.05"/><path stroke="transparent" d="M330 10c47.91 2.37 94.01 2.49 120 0m-120 0c27.21-.54 53.51-.6 120 0m0 0c-1.46 6.85-1.29 14.14 0 20m0-20c.62 7.4.44 12.84 0 20m0 0c-31.1-2.92-64.08.2-120 0m120 0c-34.11-.34-69.58-.03-120 0m0 0c-1.03-8.28 1.88-13.59 0-20m0 20c.72-6.26-.17-10.67 0-20"/></g><path fill="none" stroke="#1e1e1e" stroke-linecap="round" d="M330 10c24.02.6 46.77-2.69 120 0m-120 0c35.86.05 73.47-.06 120 0m0 0c-1.69 27.11.22 56.02 0 80m0-80c1.03 30.52.27 62.11 0 80m0 0c-22.98.29-49.11-.33-120 0m120 0c-37.21-.72-74.04-1.35-120 0m0 0c2.19-21.82-.09-42.85 0-80m0 80c-.72-30.97-.09-62.72 0-80"/><path fill="none" stroke="#1e1e1e" stroke-linecap="round" d="M330 31.492c41.58-3.3 86.22-1.42 120-1.49m-120 1.49c30.68-.37 60.25-.73 120-1.49"/><path fill="none" stroke="#1e1e1e" stroke-linecap="round" d="M410.952 30c-.74 22.34-2.17 42.88-.95 60m.95-60c.79 13.94-.36 28.63-.95 60m-39.175-80c-1.17 15.13-1.44 33.78-.83 80m.83-80c-.16 18.02-.53 37.59-.83 80m61.241-60c-1.89 20.04-.32 41.89-.95 60m.95-60c.52 22.73-.61 46.53-.95 60m-38.85-60c.15 15.16.95 32.63-.95 60m.95-60c-.32 21.69-1.36 44.71-.95 60M490 10c28.96-2.37 55.35.38 120 0m-120 0c47.29-.28 94.16-.43 120 0m0 0c.76 25.85-.92 47.59 0 80m0-80c-.79 29.67-1.19 57.59 0 80m0 0c-37.27-1.33-76.23-.81-120 0m120 0c-45.26.81-92.09-.07-120 0m0 0c1.31-23.84-2.43-46.01 0-80m0 80c-.75-22.34.45-46.12 0-80"/><path fill="none" stroke="#1e1e1e" stroke-linecap="round" d="M490 50c40.28 2.05 85.95 1.94 120 0m-120 0c33.37-.04 66.17.83 120 0"/><path fill="none" stroke="#1e1e1e" stroke-linecap="round" d="M570 10c1.11 17.83-1.2 34.61 0 80m0-80c.25 19.57.31 39.17 0 80m-39.173-80c-.05 28.68-.99 56.52-.83 80m.83-80c-.1 18.52.5 35.87-.83 80"/><path fill="none" stroke="#1e1e1e" stroke-linecap="round" d="M530 30c26.4.3 53.63-.25 80 0m-80 0c26-.77 49.95.34 80 0"/><path fill="none" stroke="#1e1e1e" stroke-linecap="round" d="M591.238 30c.45 19.82-1.52 35.52-.95 60m.95-60c-1.09 22.46-1.82 43.17-.95 60m-38.85-60c-1.13 17.79.82 36.41-.95 60m.95-60c-1.62 17.42-.8 35.77-.95 60"/><g stroke-linecap="round"><path fill="none" stroke="#2f9e44" d="M110 108c181.99-.16 362.31-.09 520 0m-520 0c112.22-.42 224.98-.53 520 0"/><path fill="#2f9e44" fill-rule="evenodd" d="m630.07 106.71-15.13 7.89-.37-11.13 15.88 4.14"/><path fill="none" stroke="#2f9e44" d="M630 108c-3.4 1.78-9.91 4.12-13.6 6.32M630 108c-3.59 1.33-6.13 2.49-13.6 6.32m0 0c.37-3.6-.13-6.84.01-12.68m-.01 12.68c.27-4.09.43-9.58.01-12.68m0 0c3.31 2.72 7.57 4.2 13.59 6.36m-13.59-6.36c3.85 1.01 5.86 3.19 13.59 6.36m0 0q0 0 0 0m0 0q0 0 0 0"/></g></svg>