<svg xmlns="http://www.w3.org/2000/svg" width="100" height="40" fill="none" viewBox="0 -1 100 40"><g fill="#0E1017" clip-path="url(#a)"><path d="m9.62 22.745 4.344-10.278a.33.33 0 0 0-.067-.368.36.36 0 0 0-.241-.097H3.03a.33.33 0 0 0-.326.206l-1.69 4.07a.33.33 0 0 0-.002.26.3.3 0 0 0 .074.108q.05.047.111.072a.3.3 0 0 0 .128.026H6.47a.33.33 0 0 1 .3.459l-4.29 10.33a.33.33 0 0 0 .184.441.3.3 0 0 0 .128.026h11.261a.324.324 0 0 0 .327-.21l1.704-4.111a.327.327 0 0 0-.198-.428.3.3 0 0 0-.127-.026H9.928a.33.33 0 0 1-.326-.328.4.4 0 0 1 .02-.153z"/><path d="M12.136 21.816h4.477a.32.32 0 0 0 .31-.205l1.959-4.66a.32.32 0 0 1 .31-.205h5.773a.325.325 0 0 0 .327-.206l1.672-4.071a.33.33 0 0 0-.184-.441.3.3 0 0 0-.127-.027H15.94a.325.325 0 0 0-.328.207l-3.803 9.15a.33.33 0 0 0-.006.258.33.33 0 0 0 .185.181.4.4 0 0 0 .147.02zM44.177 14H33.294a.3.3 0 0 0-.3.3v2.488a.3.3 0 0 0 .3.3h3.319a.3.3 0 0 1 .3.3v8.297a.3.3 0 0 0 .3.3h3.042a.3.3 0 0 0 .3-.3v-8.297a.3.3 0 0 1 .3-.3h3.322a.3.3 0 0 0 .3-.3V14.3a.3.3 0 0 0-.3-.3m31.103 9.12c-.165 0-.206-.093-.096-.213l1.753-1.952c.111-.122.285-.327.393-.452l3.15-3.768a.97.97 0 0 0 .193-.531V14.3a.3.3 0 0 0-.3-.3h-9.11a.3.3 0 0 0-.3.3v2.301a.3.3 0 0 0 .3.3h2.1l2.656-.032c.165 0 .21.092.096.212l-1.751 1.953c-.108.122-.285.328-.393.456l-3.157 3.765a.97.97 0 0 0-.192.532v1.898a.3.3 0 0 0 .3.3h9.476a.3.3 0 0 0 .3-.3V23.39a.3.3 0 0 0-.3-.3h-2.472l-2.643.032zM86.284 14h-3.043a.3.3 0 0 0-.3.3v11.391a.3.3 0 0 0 .3.3h3.043a.3.3 0 0 0 .3-.3V14.3a.3.3 0 0 0-.3-.3M66.012 26a.64.64 0 0 1-.474-.244l-4.393-6.267c-.087-.138-.156-.118-.147.047l.09 6.163a.3.3 0 0 1-.3.3H58.2a.3.3 0 0 1-.3-.3V14.3a.3.3 0 0 1 .3-.3h2.328a.67.67 0 0 1 .48.24l4.165 5.877c.09.142.152.12.147-.044l-.09-5.773a.3.3 0 0 1 .3-.3h2.587a.3.3 0 0 1 .3.3v11.4a.3.3 0 0 1-.3.3zm32.973-.287-1.8-3.46-.373-.71a1 1 0 0 1-.054-.105l-.006-.023q0-.012.006-.023s.045-.053.097-.104c0 0 .27-.283.6-.706a4.04 4.04 0 0 0 .93-2.588 3.975 3.975 0 0 0-3.4-3.96 8 8 0 0 0-.402-.033h-5.447a.3.3 0 0 0-.3.3v11.373a.3.3 0 0 0 .3.3h2.671a.3.3 0 0 0 .3-.3v-3.6a.15.15 0 0 1 .045-.105.16.16 0 0 1 .105-.045h1.027a.26.26 0 0 1 .216.135l.531 1.107 1.222 2.526a.52.52 0 0 0 .433.27h3.116a.2.2 0 0 0 .1-.002.17.17 0 0 0 .112-.151.17.17 0 0 0-.028-.095zm-5.1-6.4h-1.753a.12.12 0 0 1-.083-.035.13.13 0 0 1-.035-.083V16.84a.12.12 0 0 1 .035-.082.12.12 0 0 1 .083-.035h1.8c1.003 0 1.396.524 1.396 1.268.009.846-.403 1.32-1.443 1.32zm-38.282 3.69h-5.578a.12.12 0 0 1-.12-.12v-1.518a.125.125 0 0 1 .12-.12h3.114a.3.3 0 0 0 .3-.3V18.59a.3.3 0 0 0-.3-.3h-3.114a.12.12 0 0 1-.12-.12v-1.065q.002-.048.036-.082a.12.12 0 0 1 .084-.034h5.453a.3.3 0 0 0 .3-.3V14.3a.3.3 0 0 0-.3-.3h-8.819a.3.3 0 0 0-.3.3v11.385a.3.3 0 0 0 .3.3h8.945a.3.3 0 0 0 .3-.3v-2.382a.3.3 0 0 0-.3-.3z"/></g><defs><clipPath id="a"><path fill="#fff" d="M.987 12h98.025v16H.987z"/></clipPath></defs></svg>