<svg xmlns="http://www.w3.org/2000/svg" width="100" height="40" fill="none" viewBox="0 -1 100 40"><g fill="#fff" clip-path="url(#a)"><path d="m9.63 22.745 4.344-10.278a.33.33 0 0 0-.068-.368.36.36 0 0 0-.241-.097H3.043a.33.33 0 0 0-.326.206l-1.69 4.07a.33.33 0 0 0-.002.26.3.3 0 0 0 .074.108q.049.047.111.072.061.026.127.026h5.145a.328.328 0 0 1 .3.459l-4.288 10.33a.33.33 0 0 0 .184.441q.06.026.127.026h11.259a.324.324 0 0 0 .326-.21l1.704-4.111a.327.327 0 0 0-.198-.428.3.3 0 0 0-.127-.026h-5.83a.33.33 0 0 1-.326-.328.4.4 0 0 1 .02-.153z"/><path d="M12.146 21.816h4.475a.32.32 0 0 0 .31-.205l1.959-4.66a.32.32 0 0 1 .31-.205h5.771a.325.325 0 0 0 .328-.206l1.67-4.071a.33.33 0 0 0-.184-.441.3.3 0 0 0-.126-.027h-10.71a.325.325 0 0 0-.328.207l-3.802 9.15a.33.33 0 0 0 .067.368q.048.048.111.072a.4.4 0 0 0 .148.02zM44.179 14h-10.88a.3.3 0 0 0-.3.3v2.488a.3.3 0 0 0 .3.3h3.317a.3.3 0 0 1 .3.3v8.297a.3.3 0 0 0 .3.3h3.041a.3.3 0 0 0 .3-.3v-8.297a.3.3 0 0 1 .3-.3h3.322a.3.3 0 0 0 .3-.3V14.3a.3.3 0 0 0-.3-.3m31.095 9.12c-.165 0-.207-.093-.097-.213l1.753-1.952c.111-.122.285-.327.392-.452l3.15-3.768a.97.97 0 0 0 .193-.531V14.3a.3.3 0 0 0-.3-.3h-9.108a.3.3 0 0 0-.3.3v2.301a.3.3 0 0 0 .3.3h2.1l2.656-.032c.164 0 .21.092.096.212l-1.751 1.953c-.108.122-.285.328-.393.456l-3.156 3.765a.97.97 0 0 0-.193.532v1.898a.3.3 0 0 0 .3.3h9.474a.3.3 0 0 0 .3-.3V23.39a.3.3 0 0 0-.3-.3h-2.471l-2.643.032zM86.275 14h-3.043a.3.3 0 0 0-.3.3v11.391a.3.3 0 0 0 .3.3h3.043a.3.3 0 0 0 .3-.3V14.3a.3.3 0 0 0-.3-.3M66.008 26a.64.64 0 0 1-.474-.244l-4.391-6.267c-.088-.138-.157-.118-.148.047l.09 6.163a.3.3 0 0 1-.3.3H58.2a.3.3 0 0 1-.3-.3V14.3a.3.3 0 0 1 .3-.3h2.327a.67.67 0 0 1 .48.24l4.164 5.877c.09.142.153.12.148-.044l-.09-5.773a.3.3 0 0 1 .3-.3h2.586a.3.3 0 0 1 .3.3v11.4a.3.3 0 0 1-.3.3zm32.965-.287-1.8-3.46-.373-.71a1 1 0 0 1-.054-.105l-.006-.023q0-.012.006-.023s.045-.053.097-.104c0 0 .27-.283.6-.706a4.04 4.04 0 0 0 .93-2.588 3.975 3.975 0 0 0-3.4-3.96 8 8 0 0 0-.402-.033h-5.445a.3.3 0 0 0-.3.3v11.373a.3.3 0 0 0 .3.3h2.67a.3.3 0 0 0 .3-.3v-3.6a.15.15 0 0 1 .045-.105.16.16 0 0 1 .105-.045h1.026a.26.26 0 0 1 .217.135l.531 1.107 1.221 2.526a.52.52 0 0 0 .433.27h3.116a.2.2 0 0 0 .099-.002.17.17 0 0 0 .112-.151.17.17 0 0 0-.027-.095zm-5.1-6.4h-1.752a.12.12 0 0 1-.082-.035.12.12 0 0 1-.035-.083V16.84a.12.12 0 0 1 .035-.082.12.12 0 0 1 .082-.035h1.8c1.003 0 1.395.524 1.395 1.268.009.846-.402 1.32-1.442 1.32zm-38.272 3.69h-5.576a.12.12 0 0 1-.12-.12v-1.518a.125.125 0 0 1 .12-.12h3.114a.3.3 0 0 0 .3-.3V18.59a.3.3 0 0 0-.3-.3h-3.114a.12.12 0 0 1-.12-.12v-1.065q.002-.048.036-.082a.12.12 0 0 1 .084-.034h5.451a.3.3 0 0 0 .3-.3V14.3a.3.3 0 0 0-.3-.3H46.66a.3.3 0 0 0-.3.3v11.385a.3.3 0 0 0 .3.3h8.943a.3.3 0 0 0 .3-.3v-2.382a.3.3 0 0 0-.3-.3z"/></g><defs><clipPath id="a"><path fill="#fff" d="M1 12h98v16H1z"/></clipPath></defs></svg>