<svg xmlns="http://www.w3.org/2000/svg" width="4564.458" height="964.99" viewBox="0 0 1521.486 321.663"><g fill="none" stroke-linecap="round"><path stroke="#e9ecef" stroke-width=".5" d="M54.91 53.865q0 0 0 0m0 0q0 0 0 0m-27.16 37.34c6.75-11.27 17.77-20.21 41.34-47.55m-41.34 47.55c8.58-10.21 17.48-20.44 41.34-47.55m-45.53 58.47c11.54-14.96 25.98-31.42 59.04-67.92m-59.04 67.92c23.46-24.96 44.3-49.31 59.04-67.92m-63.24 78.85c29.75-33.34 60.21-69.22 75.44-86.79m-75.44 86.79c25.42-29.77 51.43-59.34 75.44-86.79m-78.98 96.96c31.19-36.69 62.39-69.37 85.94-98.87m-85.94 98.87c19.46-24.51 40.01-48.08 85.94-98.87m-90.14 109.8c29.29-30.81 56.65-66.85 97.09-111.7m-97.09 111.7c36.92-42.1 74.79-84.56 97.09-111.7m-96.7 117.34c28.72-32.48 58.03-69 104.32-120m-104.32 120c33.24-36.91 66.65-74.71 104.32-120m-104.58 126.4c33.32-33.55 60.4-71.91 111.53-128.3m-111.53 128.3c37.11-41.47 75.66-85.81 111.53-128.3M12.15 151.835c32.06-37.21 63.93-75.41 118.74-136.6m-118.74 136.6c35.9-41.03 72.29-81.57 118.74-136.6m-119.01 143c40.33-48.13 80.43-94.04 125.97-144.9m-125.97 144.9c46.77-52.05 91.9-103.3 125.97-144.9M12.28 163.875c37.08-44.06 70.13-83.13 131.21-150.94M12.28 163.875c48.74-56.21 98.46-113.67 131.21-150.94M12.02 170.275c49.96-60.42 101.1-118.32 137.11-157.73M12.02 170.275c35.9-40.74 70.67-81.41 137.11-157.73M12.41 175.915c28.48-33.97 56.34-69.91 141.71-163.01M12.41 175.915c52.2-58.42 101.42-116.83 141.71-163.01M12.15 182.315c51.17-59.64 103.22-120.06 147.61-169.81M12.15 182.315c58.38-65.73 116.39-134.31 147.61-169.81m-145.9 173.94c40.89-46.1 81.33-95.91 150.89-173.58M13.86 186.445c49.2-54.28 97.45-111.17 150.89-173.58M14.91 191.335c56.78-65.34 112.1-128.98 154.83-178.11M14.91 191.335c57.83-65.2 115.32-132.83 154.83-178.11m-153.78 183c40.07-45.17 79.07-92.58 159.42-183.39M15.96 196.225c56.71-67.64 114.84-132.56 159.42-183.39M17.67 200.365c46.86-52.56 90.88-104.23 162.7-187.17m-162.7 187.17c55.42-63.01 111.07-126.84 162.7-187.17M18.72 205.245c63.45-73.75 127.68-145.73 166.64-191.69M18.72 205.245c42.79-51.29 86.5-100.35 166.64-191.69M20.42 209.385c59.6-67.69 115.54-131.93 169.27-194.72M20.42 209.385c49.87-57.15 98.18-113.39 169.27-194.72M21.47 214.275c52.47-62.09 106.08-120.2 172.55-198.49M21.47 214.275c37.03-42.53 73.15-84.11 172.55-198.49M23.18 218.405c33.8-40.81 69.49-81.22 175.17-201.51M23.18 218.405c64.24-75.73 131.9-151.91 175.17-201.51m-174.12 206.4c54.46-62.75 111.88-129.28 177.79-204.53M24.23 223.295c54.8-60.63 109.05-123 177.79-204.53M25.94 227.425c44.63-52.91 90-101.62 180.41-207.54M25.94 227.425c36.63-42.36 72.63-84.23 180.41-207.54M28.3 230.805c52.95-62.1 108.59-123.47 181.73-209.05M28.3 230.805c37.38-42.53 75.43-87.18 181.73-209.05M30.66 234.185c50.3-58.07 99.66-115.7 183.7-211.32m-183.7 211.32c55.72-65.07 112.39-130 183.7-211.32m-181.33 214.7c38.33-45.75 79.84-89.63 185-212.83m-185 212.83c59.35-68.77 119.06-136.77 185-212.83M35.39 240.945c43.91-49.6 84.04-94.86 186.98-215.1m-186.98 215.1c52.3-60.86 104.83-121.44 186.98-215.1M37.75 244.325c75.77-88.08 149.31-172.91 188.95-217.36M37.75 244.325c39.95-47.07 80.72-92.7 188.95-217.36M40.11 247.705c48.44-55.23 97.95-112.18 190.26-218.87M40.11 247.705c51.72-60.47 103.78-120.2 190.26-218.87M42.48 251.075c47.97-55.49 97.37-111.35 191.57-220.37M42.48 251.075c72.91-80.64 142.78-161.77 191.57-220.37M44.84 254.455c48.71-53.53 95.72-109.24 192.23-221.13M44.84 254.455c53.33-61.81 107.26-122.69 192.23-221.13M47.2 257.835c72.96-82.32 144.66-167.54 192.88-221.88M47.2 257.835c51.99-57.48 103.17-116.82 192.88-221.88M49.57 261.215c62.01-73.29 126.21-146.54 193.53-222.64M49.57 261.215c43.02-51.39 86.97-101.07 193.53-222.64M51.93 264.595c44.05-54.79 92.02-107.69 194.19-223.39M51.93 264.595c54.31-62.2 108.4-122.86 194.19-223.39M54.95 267.215c62.27-74.99 128.1-147.54 194.85-224.14M54.95 267.215c58.01-66.95 116.64-135.14 194.85-224.14M57.97 269.845c50.96-58.01 101.04-116.22 194.85-224.15M57.97 269.845c73.16-83.43 146.74-167.27 194.85-224.15M60.98 272.465c61.54-72.19 124.98-144.89 194.85-224.15M60.98 272.465c50.44-56.11 99.37-114.35 194.85-224.15M64 275.095c75.27-85.13 145.94-167.48 194.85-224.15M64 275.095c46.94-52.89 92.21-106.44 194.85-224.15M67.68 276.965c55.68-66.71 111.56-130.03 194.19-223.4m-194.19 223.4c48.66-57.58 100.26-116.74 194.19-223.4M70.7 279.585c51.5-59.49 104.99-119.43 194.85-224.15M70.7 279.585c66.33-74.23 130.96-148.97 194.85-224.15M73.72 282.205c50.35-58.37 101.33-117 194.19-223.39M73.72 282.205c47.8-54.97 97.62-111.71 194.19-223.39M77.39 284.075c62.49-67.82 122.04-139.29 193.54-222.64M77.39 284.075c46.29-50.63 91-102.95 193.54-222.64M80.41 286.705c74.85-83.62 146.8-166.47 192.88-221.89M80.41 286.705c40.57-46.55 81.53-94.39 192.88-221.89M83.43 289.325c49.1-58.82 96.89-115.36 192.22-221.13M83.43 289.325c57.63-67.54 116.2-133.37 192.22-221.13m-188.55 223c40.47-47.17 82.18-96.52 190.92-219.62M87.1 291.195c51.55-59.51 104.28-120.57 190.92-219.62m-187.9 222.25c63.78-69.96 124.43-142.7 190.26-218.87M90.12 293.825c40.37-47.14 81.52-93.68 190.26-218.87M94.45 294.935c49.75-59.66 103.02-119.03 188.29-216.6m-188.29 216.6c39.52-46.49 79.9-91.86 188.29-216.6M98.78 296.055c58.86-68.87 118.56-135.5 186.33-214.34M98.78 296.055c42.78-48.23 84.8-96.98 186.33-214.34m-182.65 216.21c51.2-61.48 105.94-120.39 185.01-212.83m-185.01 212.83c64.82-74.93 130.62-151.44 185.01-212.83m-180.68 213.94c54.68-65.77 110.22-128.79 183.04-210.56m-183.04 210.56c54.48-64.1 110.21-127.1 183.04-210.56m-179.36 212.43c50.52-57.19 102.18-118.27 181.72-209.05m-181.72 209.05c49.31-58.47 99.18-115.99 181.72-209.05M114.8 302.015c62.84-70.44 125.24-144.88 179.76-206.79M114.8 302.015c39.68-42.96 76.58-86.52 179.76-206.79m-175.43 207.91c64.26-73.49 130.33-147.86 177.13-203.77m-177.13 203.77c54.23-62.1 107.48-123.25 177.13-203.77M122.8 305.005c66.5-76.06 132.72-151.29 174.51-200.75M122.8 305.005c36.36-42.58 71.56-83.74 174.51-200.75m-170.18 201.86c55.02-62.21 112.28-127.28 171.89-197.73m-171.89 197.73c67.47-78.98 134.96-157.14 171.89-197.73m-168.21 199.6c48.37-59.79 100.95-117.66 169.92-195.47m-169.92 195.47c60.33-68.8 120.94-137.56 169.92-195.47m-165.59 196.59c31.33-38.38 67.8-77.43 166.64-191.7m-166.64 191.7c47.49-54.19 96.01-110.05 166.64-191.7m-161.65 192.06c47.4-52.92 94.53-105.47 163.35-187.92m-163.35 187.92c66.08-74.79 129.83-148.61 163.35-187.92m-158.37 188.28c53.61-65.62 110.94-130.58 159.43-183.4m-159.43 183.4c54.8-62.84 110-126.95 159.43-183.4m-153.78 183c45.54-54.38 96.48-110.14 155.48-178.86m-155.48 178.86c47.42-55.44 94.77-110.66 155.48-178.86m-150.5 179.22c55.81-63.74 112.6-126.44 151.55-174.33m-151.55 174.33c42.54-49.42 86.88-99.05 151.55-174.33m-145.9 173.94c57.26-69.88 115.42-135.42 146.95-169.06m-146.95 169.06c46.4-55.09 96.67-111.44 146.95-169.06m-141.97 169.42c51.38-57.74 98.43-115.08 142.37-163.77m-142.37 163.77c38.53-44 76.65-87.7 142.37-163.77m-137.38 164.13c48.56-58.76 99.86-115.28 137.12-157.73m-137.12 157.73c43.67-50.71 88.09-101.49 137.12-157.73M177 309.725c30.25-37.46 62.28-71.58 131.87-151.7M177 309.725c27.27-34.48 56.77-66.85 131.87-151.7M183.3 308.575c38.93-44.22 78.33-91.25 125.31-144.15M183.3 308.575c30.34-33.01 58.23-65.58 125.31-144.15m-118.35 142.24c36.46-43.74 74-84.9 118.09-135.85m-118.09 135.85c32.77-39.96 68.23-79.15 118.09-135.85m-111.14 133.95c33.6-39.48 62.92-73.17 111.53-128.3m-111.53 128.3c22.83-25.9 47.43-52.6 111.53-128.3m-103.92 125.64c25.59-31.91 53.22-57.78 103.66-119.25m-103.66 119.25c40.3-45.78 81.63-93.78 103.66-119.25m-96.7 117.34c21.44-26.94 47.23-54.59 96.44-110.94m-96.44 110.94c28.81-32.17 58.73-65.11 96.44-110.94m-88.83 108.29c22.37-24.42 44.76-51.79 84.63-97.36m-84.63 97.36c26.32-29.1 50.22-59.03 84.63-97.36m-78.33 96.21c22.41-25.12 44.69-52.64 74.79-86.04m-74.79 86.04c26.87-29.87 53.67-59.26 74.79-86.04m-59.96 75.08c10.82-12.96 25.97-25.39 56.42-64.91m-56.42 64.91c17.19-19.02 35.3-39.63 56.42-64.91m-42.25 54.7c11.01-11.91 20.32-20.6 38.71-44.53m-38.71 44.53c12.11-13.38 23.99-27.69 38.71-44.53m-241.24 34.98q0 0 0 0m0 0q0 0 0 0m37.34 27.16c-18.13-15.83-33.39-29.12-46.04-40.02m46.04 40.02c-13.8-12.92-30.16-26.24-46.04-40.02m56.21 43.56c-19.93-16.83-39.77-32.04-65.66-57.08m65.66 57.08c-19.15-15.73-37.81-30.28-65.66-57.08m75.83 60.62c-23.08-23.43-50.7-44.9-84.52-73.48m84.52 73.48c-24.02-20.44-47.29-40.42-84.52-73.48m94.7 77.02c-35.01-29.26-68.69-59.76-97.36-84.63m97.36 84.63c-24.4-21.23-49.78-43.87-97.36-84.63m107.53 88.17c-29.3-26.41-60.49-55.38-109.44-95.13m109.44 95.13c-43.72-38.23-85.3-73.44-109.44-95.13m117.34 96.71c-44.74-42.16-93.29-80.67-119.24-103.66m119.24 103.66c-35.66-32.79-71.2-63.32-119.24-103.66m125.64 103.92c-37.42-31.77-71.77-61.98-128.3-111.53m128.3 111.53c-34.43-29.18-67.2-57.74-128.3-111.53m134.7 111.79c-37.94-29.35-73.31-62.92-136.6-118.75m136.6 118.75c-42.93-36.72-87.62-73.37-136.6-118.75m142.24 118.36c-38.93-31.38-76.02-64.85-144.15-125.31m144.15 125.31c-43.79-37.15-87.06-75.79-144.15-125.31m150.55 125.57c-37.35-30.73-71.81-64.83-150.94-131.22m150.94 131.22c-34.49-28.47-66.41-56.86-150.94-131.22m157.34 131.48c-54.75-48.33-108.78-93.35-157.74-137.12m157.74 137.12c-62.36-53.81-125.25-107.92-157.74-137.12m163.38 136.72c-48.5-42.8-96.25-83.52-163.02-141.71m163.02 141.71c-44.86-39.82-88.21-76.94-163.02-141.71m169.42 141.98c-53.57-46.33-105-92.8-169.81-147.62m169.81 147.62c-64.64-57.11-130.19-114.89-169.81-147.62m173.94 145.91c-64.77-53.21-129.38-109.63-173.58-150.9m173.58 150.9c-58.26-53.72-118.2-105.81-173.58-150.9m178.47 149.85c-51.58-44.83-103.03-90.09-178.87-155.49m178.87 155.49c-36.21-30.37-73.01-63.43-178.87-155.49m183 153.78c-62.98-52.69-124.69-107.5-182.64-158.77m182.64 158.77c-46.25-40.17-91.24-81.08-182.64-158.77m187.53 157.72c-43.57-38.45-88.58-78.19-187.92-163.36m187.92 163.36c-66.74-58.29-134.93-118.11-187.92-163.36m192.06 161.65c-51.94-45.7-102.17-90.76-192.45-167.29m192.45 167.29c-41.85-35.91-83.81-73.3-192.45-167.29m197.33 166.24c-55.63-49.8-109.89-97.16-195.46-169.92m195.46 169.92c-46.84-38.72-93.25-79.29-195.46-169.92m199.6 168.22c-59.8-48.77-118.57-101.59-198.49-172.55m198.49 172.55c-40.14-36.13-81.02-71.85-198.49-172.55m203.38 171.5c-39.96-33.18-81.12-69.08-201.51-175.17m201.51 175.17c-79.63-70.31-158.72-139.42-201.51-175.17m205.64 173.46c-79.33-71.1-161.28-140.63-204.53-177.79m204.53 177.79c-81.06-71.4-162.53-142.47-204.53-177.79m208.66 176.08c-61.84-55-122.52-108.56-206.79-179.76m206.79 179.76c-54.73-48.91-108-96.97-206.79-179.76m210.17 177.4c-42.97-36.75-85.8-71.5-209.05-181.73m209.05 181.73c-63.32-54.92-129.15-111.71-209.05-181.73m212.43 179.37c-75.71-65.77-149.41-129.99-210.56-183.04m210.56 183.04c-54.22-47.75-110.46-95.65-210.56-183.04m213.94 180.67c-82.71-73.5-165-144.22-212.83-185m212.83 185c-60.75-51.8-119.85-104.51-212.83-185m216.21 182.64c-57.12-49.67-114.91-99.1-214.34-186.32m214.34 186.32c-59.96-52.22-119.55-103.99-214.34-186.32m217.72 183.96c-65.38-54.39-126.28-107.81-216.6-188.29m216.6 188.29c-79.5-69.56-159.7-139.04-216.6-188.29M246 280.475c-46.09-38.6-93.09-80.41-218.11-189.61M246 280.475c-82.3-71.9-165.4-143.49-218.11-189.61m221.49 187.24c-56.63-48.47-115.25-100.92-218.87-190.25m218.87 190.25c-58.97-53.51-118.48-104.93-218.87-190.25m222.25 187.89C187 219.905 123.27 163.935 32.38 84.175m220.38 191.57c-67.2-58.93-133.02-116.69-220.38-191.57m223.75 189.21C177.76 204.875 98.49 134.015 35 81.155m221.13 192.23c-46.27-38.73-93.75-79.79-221.13-192.23m224.51 189.86c-59.53-53.79-119.71-104.78-221.88-192.88m221.88 192.88c-81.22-72.9-164.74-145.58-221.88-192.88m225.26 190.52c-48.96-43.54-95.61-85.44-223.39-194.19m223.39 194.19c-49.58-43.46-100.56-86.49-223.39-194.19m226.02 191.17c-56.91-50.73-116.41-102.08-223.4-194.19m223.4 194.19c-84.35-74.91-169.35-148.3-223.4-194.19m226.02 191.17c-85.91-76.47-169.8-150.21-223.39-194.19m223.39 194.19c-63.37-55.56-126.11-110.76-223.39-194.19m226.02 191.17c-45.54-40.35-91.51-79.93-224.15-194.84m224.15 194.84c-67.12-60.01-135.66-119.28-224.15-194.84m226.01 191.17c-44.11-39.43-89.66-78.61-223.39-194.19m223.39 194.19c-86.9-77.3-173.03-152.88-223.39-194.19m226.02 191.17c-46.98-45.25-96.67-86.54-223.4-194.19m223.4 194.19c-86.02-74.9-172.85-148.63-223.4-194.19m226.02 191.17c-71.66-59.96-142.15-121.97-224.15-194.85m224.15 194.85c-59.93-50.22-118.29-102.38-224.15-194.85m226.78 191.83c-56.37-52.09-112.95-101.62-224.15-194.85m224.15 194.85c-57.76-48.92-114.62-98.16-224.15-194.85m226.77 191.83c-78.05-71.38-160.53-141.32-223.39-194.19m223.39 194.19c-58.05-50.3-116.44-101.67-223.39-194.19M285 240.175c-47.5-41.29-93.44-80.47-221.88-192.88M285 240.175c-45.94-40.43-93.33-81.33-221.88-192.88m224.51 189.86c-61.36-53.64-123.03-108.13-221.13-192.22m221.13 192.22c-56.48-47.8-114.65-97.84-221.13-192.22m223.75 189.2c-52.27-45.87-104.52-92.02-220.38-191.57m220.38 191.57c-73.22-63.16-145.82-126.85-220.38-191.57m223 188.55c-48.04-39.48-93.96-79.23-219.62-190.91m219.62 190.91c-77.95-66.46-155.09-134.52-219.62-190.91m221.49 187.24c-51.92-48.09-105.38-92-218.11-189.6m218.11 189.6c-82.77-72.04-163.56-143.1-218.11-189.6m219.23 185.27c-83.98-69.52-164.59-143.78-215.85-187.64m215.85 187.64c-83.53-71.14-166.34-144.51-215.85-187.64m217.72 183.96c-76.93-67.45-156.7-134.9-214.34-186.32m214.34 186.32c-58.09-51.4-116.94-101.88-214.34-186.32m215.45 181.99c-49.22-44.25-100.82-85.15-212.07-184.35m212.07 184.35c-44.94-39.46-89.38-77.47-212.07-184.35m213.94 180.68c-62.28-54.55-121.56-106.54-210.56-183.04m210.56 183.04c-46.94-42.71-94.62-83.52-210.56-183.04m211.68 178.71c-61.3-52.45-125.31-107.33-208.3-181.08m208.3 181.08c-42.72-37.78-86.37-74.99-208.3-181.08m209.41 176.74c-77.58-66.27-157.67-136.2-205.28-178.44m205.28 178.44c-46.68-39.41-93.42-80.16-205.28-178.44m207.15 174.77c-59.96-52.2-123.17-105.3-202.26-175.82m202.26 175.82c-79.5-67.54-158.08-135.85-202.26-175.82m203.38 171.49c-63.62-55.98-127.54-111.89-199.25-173.2m199.25 173.2c-66.98-56.69-133.34-115.28-199.25-173.2m201.12 169.52c-54.29-46.81-108.89-93.81-196.23-170.57m196.23 170.57c-58.37-49.69-115.42-99.35-196.23-170.57m197.34 166.24c-49.61-42.17-98.44-83-193.21-167.95m193.21 167.95c-74.16-66.34-149.05-131.94-193.21-167.95m192.82 162.31c-48.45-41.92-93.88-81.09-187.93-163.36m187.93 163.36c-52.11-45.08-104.37-90.5-187.93-163.36m188.29 158.37c-48.22-42.88-98.51-85.74-184.15-160.08m184.15 160.08c-55.41-48.78-109.65-95.51-184.15-160.08m183.75 154.44c-60.11-52.86-121.94-106.35-178.86-155.49m178.86 155.49c-43.18-38.63-87.1-76.49-178.86-155.49m179.22 150.5c-50.73-41.61-103.79-86.7-175.09-152.2m175.09 152.2c-60.84-55.05-123.32-108.01-175.09-152.2m174.7 146.56c-48.87-42.24-96.63-85.17-169.81-147.61m169.81 147.61c-50.14-46.41-101.69-90.86-169.81-147.61m170.17 142.62c-36.59-33.49-71.4-62.93-164.53-143.02m164.53 143.02c-53.79-45.37-108.86-93.59-164.53-143.02m164.13 137.38c-49.14-40.73-96.14-84.41-157.73-137.12m157.73 137.12c-46.51-38.83-93.09-78.97-157.73-137.12m158.09 132.13c-59.98-51.05-118.31-102.7-151.69-131.87m151.69 131.87c-55.59-48.53-111.83-95.37-151.69-131.87m152.05 126.89c-33.71-26.44-60.76-52.57-146.41-127.28m146.41 127.28c-42.54-35.74-84.56-72.69-146.41-127.28m143.75 119.66c-39.15-32.9-77.98-64.8-137.35-119.4m137.35 119.4c-38.91-32.89-79.33-65.81-137.35-119.4m135.45 112.45c-43.52-37.05-83.86-73.96-129.06-112.19m129.06 112.19c-36.58-31.86-72.78-63.27-129.06-112.19m126.4 104.58c-27.92-22.97-52.87-46.45-120-104.32m120 104.32c-32.91-28.75-66.19-56.14-120-104.32m118.1 97.36c-44.22-34.87-86.64-71.19-110.95-96.44m110.95 96.44c-33.33-29.81-67.08-60.15-110.95-96.44m108.29 88.83c-30.21-25.64-57.24-51.72-98.11-85.29m98.11 85.29c-21.33-19.69-43.6-38.61-98.11-85.29m95.45 77.68c-32.58-27.47-62.14-56.7-85.28-74.13m85.28 74.13c-26.25-21.88-50.91-44.4-85.28-74.13m75.83 60.61c-13.02-12.35-29.6-27.6-65.66-57.07m65.66 57.07c-24.91-20.98-47.68-41.6-65.66-57.07m55.45 42.9c-14.36-13.32-29.46-24.92-45.28-39.36m45.28 39.36c-11.74-8.68-21.44-18.31-45.28-39.36"/><path stroke="#1e1e1e" d="M139.44 12.195c14.3-4.51 31.77-1.96 46.99.76s30.87 8.16 44.34 15.53c13.46 7.38 25.83 17.57 36.43 28.75 10.6 11.17 20.27 24.51 27.17 38.3s11.84 29.24 14.22 44.43c2.38 15.2 2.6 31.74.05 46.75-2.55 15.02-7.88 29.82-15.34 43.33-7.47 13.51-18.13 26.77-29.44 37.72s-24.63 21.06-38.41 27.95c-13.79 6.9-29.25 11.22-44.28 13.43-15.02 2.21-30.55 2.52-45.88-.17-15.33-2.68-32.3-8.78-46.1-15.96-13.8-7.17-26.01-15.94-36.73-27.08-10.71-11.14-20.75-25.72-27.55-39.75-6.81-14.03-11.01-29.2-13.27-44.44-2.26-15.23-2.95-31.87-.3-46.95 2.65-15.07 8.9-29.97 16.2-43.5s16.53-26.82 27.6-37.69c11.07-10.88 23.56-20.42 38.84-27.56 15.29-7.14 43.06-13.39 52.88-15.29 9.82-1.91 5.92 1.12 6.03 3.88m73.14 12.4c14.18 4.04 26.41 15.15 37.49 25.6s21.45 23.47 28.99 37.1c7.54 13.62 13.48 29.3 16.28 44.65 2.8 15.36 2.75 31.91.52 47.48s-7.07 32.11-13.9 45.92c-6.82 13.82-16.03 26.19-27.06 36.98-11.04 10.79-25.46 20.47-39.15 27.76-13.7 7.3-28.04 13.28-43.03 16-14.98 2.73-31.43 2.32-46.88.35s-31.79-5.34-45.8-12.18c-14-6.83-27.26-17.89-38.23-28.84-10.96-10.94-20.56-23.38-27.56-36.84-6.99-13.47-11.81-28.78-14.43-43.95s-3.13-31.58-1.27-47.07c1.86-15.48 5.58-31.84 12.45-45.84 6.86-14 17.64-27.19 28.74-38.15 11.11-10.95 24.26-20.33 37.88-27.59 13.62-7.27 29.02-13.55 43.84-15.98s30.07-1.04 45.1 1.39 37.72 10.59 45.06 13.21-.08.37-1.04 2.52"/></g><path fill="none" stroke="#1e1e1e" stroke-linecap="round" d="M85.932 33.727c12.37 21.32 62.73 106.89 75.48 127.96m-77.02-128.9c12.11 20.97 63.04 105.8 75.98 127.18m-.243 2.901c-16.19 18.14-80.74 90.09-97.12 108.26m95.57-108.9c-16.27 18.26-79.81 91.54-96.1 110.03"/><path fill="none" stroke="#1e1e1e" stroke-linecap="round" d="M235.144 29.91c-12.11 21.44-61.25 108.46-73.62 130.16m72.58-127.95c-12.28 21.58-61.94 107.91-73.74 129.47"/><path fill="none" stroke="#1e1e1e" stroke-linecap="round" d="M296.283 108.49c-23.02 9.04-114.07 44.57-136.92 53.49m138.91-54.55c-22.72 9.31-113.9 46.79-136.71 56.11"/><g stroke-linecap="round"><path fill="none" stroke="#1e1e1e" d="M810.363 10.845c-1.11 62.8.76 125.59 0 300m0-300c.77 83.02 1.35 166.23 0 300m0 0c62.93-.99 127.41.31 300 0m-300 0c95.59.09 191.1.78 300 0"/><path fill="#1e1e1e" fill-rule="evenodd" d="m810.413 11.615 6.42 12.23-13.77 1.06 8.01-14.4"/><path fill="none" stroke="#1e1e1e" d="M810.363 10.845c.77 2.26 4.02 4.53 6.35 13.59m-6.35-13.59c1.2 3.82 3.55 7.84 6.35 13.59m0 0c-3.42-1.29-5.5-.16-12.68.01m12.68-.01c-3.73-.57-7.53.03-12.68.01m0 0c1.09-2.53 3.28-7.27 6.33-13.6m-6.33 13.6c1.1-4.27 4.26-7.68 6.33-13.6m0 0q0 0 0 0m0 0q0 0 0 0"/><path fill="#1e1e1e" fill-rule="evenodd" d="m1110.413 311.615-13.5 5.03-1.14-11.62 15.3 5.48"/><path fill="none" stroke="#1e1e1e" d="M1110.363 310.845c-3.42.82-4.37 1.58-13.57 6.39m13.57-6.39c-4.35 1.81-7.51 3.84-13.57 6.39m0 0c-.74-3.96-.13-5.53-.05-12.68m.05 12.68c.2-4.56.41-7.99-.05-12.68m0 0c2.55 1.89 6.37 1.59 13.62 6.29m-13.62-6.29c3.05 1.27 8.25 3.44 13.62 6.29m0 0q0 0 0 0m0 0q0 0 0 0"/></g><g stroke-linecap="round"><path fill="none" stroke="#1e1e1e" d="M410.834 10.845c-.64 68.48-1.5 137.66 0 300m0-300c1.64 112.03 1.5 222.87 0 300m0 0c99.59-2.84 199.65-1.09 300 0m-300 0c94.97-.97 189.95-.86 300 0"/><path fill="#1e1e1e" fill-rule="evenodd" d="m412.314 12.015 3.81 13.3-12.93-.8 8.92-11.73"/><path fill="none" stroke="#1e1e1e" d="M410.834 10.845c1.82 2.32 2.39 5.34 6.28 13.62m-6.28-13.62c2.13 5.46 4.32 9.7 6.28 13.62m0 0c-3.9-.79-7.39.7-12.68-.05m12.68.05c-4.1.6-8.2.67-12.68-.05m0 0c.13-5.18 4.25-7.41 6.4-13.57m-6.4 13.57c2.22-5.37 4.4-10.12 6.4-13.57m0 0q0 0 0 0m0 0q0 0 0 0"/><path fill="#1e1e1e" fill-rule="evenodd" d="m712.314 312.015-16.1 5.94-.17-13.42 16.07 8.25"/><path fill="none" stroke="#1e1e1e" d="M710.834 310.845c-2.75.56-6.78 1.88-13.63 6.26m13.63-6.26c-5.35 2.74-10.56 4.24-13.63 6.26m0 0c.42-5.08 1.14-7.76.07-12.68m-.07 12.68c.06-3.5.01-7.42.07-12.68m0 0c2.21.17 8.26 3.33 13.56 6.42m-13.56-6.42c4.92 2.14 9.79 4.87 13.56 6.42m0 0q0 0 0 0m0 0q0 0 0 0"/></g><g fill="none" stroke-linecap="round"><path stroke="#a5d8ff" stroke-width=".5" d="M430 30.845q0 0 0 0m0 0q0 0 0 0m-.26 6.4c2.16-2.37 3.29-4.84 5.25-6.04m-5.25 6.04c1.22-1.54 2.06-2.81 5.25-6.04m-4.86 11.68c4.27-5.08 9.84-9.12 10.5-12.07m-10.5 12.07c2.62-3.06 5.4-5.4 10.5-12.07m-10.76 18.47c3.08-4.67 9.8-10.08 15.75-18.11m-15.75 18.11c3.42-3.62 7.18-9.11 15.75-18.11m-15.35 23.75c7.11-5.54 10.34-13.58 20.99-24.15m-20.99 24.15c5.46-5.64 8.03-10.25 20.99-24.15M430 61.325c10.33-9.93 21.26-25.44 26.25-30.19M430 61.325c8.88-10.53 19.04-21.4 26.25-30.19m-26.51 36.59c10.06-12.69 19.73-24.09 32.15-36.98m-32.15 36.98c9.39-10.84 20.63-23.76 32.15-36.98m-31.75 42.62c8.43-10.29 18.36-19.19 36.74-42.26m-36.74 42.26c11.25-13.17 20.72-25.01 36.74-42.26m-37 48.66c10.27-10.94 21.75-26.27 40.67-46.79m-40.67 46.79c12.78-14.41 25.62-28.47 40.67-46.79m-40.28 52.43c16.55-16.22 32.01-36.01 40.02-46.04m-40.02 46.04c13.89-15.99 27.13-30.85 40.02-46.04m-40.28 52.44c13.9-16.91 28.39-31.68 40.68-46.79m-40.68 46.79c12.69-14.96 25.58-30.47 40.68-46.79m-40.94 53.19c16.03-20.52 31.46-39.08 40.67-46.8m-40.67 46.8c11.01-10.71 20.33-22.97 40.67-46.8m-40.28 52.44c12.97-14.41 25.85-29.76 40.68-46.79m-40.68 46.79c12.27-12.41 23.14-25 40.68-46.79m-40.94 53.19c12.46-14.74 20.07-25.8 40.68-46.79m-40.68 46.79c14.69-17.87 30.23-36.04 40.68-46.79m-40.28 52.43c13.17-13.84 26.17-30.13 40.02-46.04m-40.02 46.04c8.38-11.35 17.46-21.23 40.02-46.04m-40.29 52.44c10.43-11.5 17.34-21.31 40.68-46.79m-40.68 46.79c10.96-13.34 23.52-27.82 40.68-46.79m-40.94 53.19c7.16-12.09 20.06-23.43 40.68-46.8m-40.68 46.8c11.82-12.19 23.84-26.53 40.68-46.8m-40.28 52.44c9.6-11.22 18.31-21.42 40.67-46.79m-40.67 46.79c10.46-11.17 19.25-24.1 40.67-46.79m-40.93 53.19c9.77-12.03 22.23-25.85 40.67-46.79m-40.67 46.79c9.55-11.13 18.21-22.75 40.67-46.79m-40.28 52.43c10.26-12.96 23.48-25.74 40.02-46.04m-40.02 46.04c10.43-11.26 18.35-22.45 40.02-46.04m-40.28 52.44c9.09-10.51 20.19-20.7 40.67-46.79m-40.67 46.79c13.79-15.24 28.23-31.76 40.67-46.79m-40.93 53.19c12.53-16.46 26.78-31.87 40.67-46.8m-40.67 46.8c15.9-17.41 29.77-35.07 40.67-46.8m-40.28 52.44c9.05-10.76 16.2-18.39 40.68-46.79m-40.68 46.79c15.47-17.75 31.31-35.76 40.68-46.79m-40.94 53.19c7.49-10.51 16.86-21.21 40.68-46.8m-40.68 46.8c12.66-14.23 23.57-28.62 40.68-46.8m-40.28 52.44c13.11-12.3 22.81-28.32 40.02-46.04m-40.02 46.04c12.02-15.26 24.94-29.21 40.02-46.04m-40.29 52.44c12.36-14.24 22.55-26.94 40.68-46.79m-40.68 46.79c14.72-18.64 30.65-36.95 40.68-46.79m-40.94 53.19c14.47-14.11 25.82-29.16 40.68-46.8m-40.68 46.8c12.75-13.32 22.92-26.83 40.68-46.8m-36.35 47.91c11.42-15.04 26.75-29.95 36.74-42.26m-36.74 42.26c13.93-14.37 25.39-30.25 36.74-42.26m-31.75 42.62c6.68-6.17 15.25-15.18 31.49-36.23m-31.49 36.23c8.86-9.06 16.86-17.31 31.49-36.23m-25.85 35.84c10.74-11.98 19.44-21.01 25.59-29.44m-25.59 29.44c10.74-11.93 20.35-22.01 25.59-29.44m-20.6 29.8c5.34-8.69 12.79-14.7 20.99-24.15m-20.99 24.15c5.03-6.88 10.29-12.51 20.99-24.15m-15.35 23.75c2.47-3.34 6.86-9.39 15.09-17.36m-15.09 17.36c4.06-3.92 7.95-9.81 15.09-17.36m-10.1 17.72c4.54-2.99 5.5-8.02 10.5-12.07m-10.5 12.07c2.83-2.33 4.9-5.44 10.5-12.07m-4.86 11.68c.88-2.01 2.37-3.7 4.6-5.29m-4.6 5.29c.87-1 2.55-2.7 4.6-5.29"/><path stroke="#1e1e1e" d="M430 30.845c11.2-1.33 21.22-1.72 40 0m-40 0c11.75-.54 21.01.51 40 0m0 0c2.21 52.33 2 100.72 0 160m0-160c-.35 55.77-1.73 108.97 0 160m0 0c-13.61 1.02-28.54 1.52-40 0m40 0c-8.01-.51-17.81-.34-40 0m0 0c1.32-37.12.88-75.27 0-160m0 160c.22-54.24-1.1-109.42 0-160"/></g><g fill="none" stroke-linecap="round"><path stroke="#a5d8ff" stroke-width=".5" d="M490 30.845q0 0 0 0m0 0q0 0 0 0m-.26 6.4c.46-2.08 1.69-2.27 5.25-6.04m-5.25 6.04c1.4-1.14 2.31-2.16 5.25-6.04m-4.86 11.68c2.33-1.66 4.78-5.67 10.5-12.07m-10.5 12.07c3.31-4.15 7.61-8.79 10.5-12.07m-10.76 18.47c4.57-7.59 9.25-13.02 15.75-18.11m-15.75 18.11c3.17-3.64 8.07-8.44 15.75-18.11m-15.35 23.75c5.63-6.71 7.29-8.53 20.99-24.15m-20.99 24.15c5.85-7.26 12.33-13.79 20.99-24.15M490 61.325c8.1-11.68 19.97-23.81 26.25-30.19M490 61.325c6-8.43 14.08-15.71 26.25-30.19m-26.51 36.59c8.58-10.02 17.6-19.56 32.15-36.98m-32.15 36.98c9.69-11.59 21.24-22.58 32.15-36.98m-31.75 42.62c11.55-14.96 25.36-27.9 36.74-42.26m-36.74 42.26c11.54-13.47 22.79-26.86 36.74-42.26m-37 48.66c13.4-16.45 31.77-37.59 41.33-47.55m-41.33 47.55c12.07-13.16 23.16-26.09 41.33-47.55m-40.94 53.19c14.6-19.53 30.3-36.81 41.33-47.55m-41.33 47.55c10.93-11.71 19.83-24.36 41.33-47.55m-41.59 53.95c13.21-12.07 24.37-27.94 41.33-47.55m-41.33 47.55c16.67-18.61 32.88-37.34 41.33-47.55m-41.59 53.95c14.47-14.14 27.36-29.28 41.33-47.55m-41.33 47.55c10.92-11.93 21.78-24.2 41.33-47.55m-40.94 53.19c9.07-11.14 20.4-22.46 41.33-47.55m-41.33 47.55c9.29-11.27 19.6-22.82 41.33-47.55m-41.59 53.95c11.18-14.6 22.9-28.18 41.33-47.55m-41.33 47.55c8.53-11.57 18.23-21.85 41.33-47.55m-40.93 53.19c11.03-12.64 23.08-25.17 41.33-47.55m-41.33 47.55c13.75-16.52 28.41-32.68 41.33-47.55m-41.6 53.95c17.26-18.29 32.32-34.4 41.34-47.55m-41.34 47.55c14.26-17.15 30.72-34.29 41.34-47.55m-41.6 53.95c11.13-11.78 21.53-23.43 41.33-47.55m-41.33 47.55c16.37-16.78 31.13-34.77 41.33-47.55m-40.93 53.19c12.12-12.69 23.33-25.44 41.33-47.55m-41.33 47.55c12.18-14.38 25.03-28.94 41.33-47.55m-41.59 53.95c11.56-13.61 23.31-27.89 41.33-47.55m-41.33 47.55c14.29-15.35 28.37-32.23 41.33-47.55m-40.94 53.19c12-14.08 27.38-30.38 41.33-47.55m-41.33 47.55c11.42-12.89 20.2-24.73 41.33-47.55m-40.93 53.19c11.36-12.04 24.53-28.91 40.67-46.79m-40.67 46.79c8.3-9.98 17.52-19.18 40.67-46.79m-35.03 46.4c9.2-11.29 19.47-23.11 34.77-40m-34.77 40c10.21-11.09 19.72-23.5 34.77-40m-29.78 40.36c7.66-8.93 13.74-14.8 30.17-34.72m-30.17 34.72c8.95-11.2 18.79-21.57 30.17-34.72m-24.53 34.32c6.29-5.92 14.4-13.72 24.27-27.92m-24.27 27.92c10.21-11.68 18.71-21.4 24.27-27.92m-19.28 28.28c4.66-6.57 10.24-12.13 19.68-22.64m-19.68 22.64c5.72-7.1 10.64-12.9 19.68-22.64m-14.04 22.25c1.39-4.79 5.3-7.97 13.78-15.85m-13.78 15.85c3.26-3.38 6.83-6.16 13.78-15.85m-8.79 16.21c3.2-2.91 5.67-7.78 8.52-9.81m-8.52 9.81c3.22-3.44 6.98-7.41 8.52-9.81m-2.88 9.42c1.56-1.09 1.91-2.63 3.28-3.78m-3.28 3.78c1.36-1.35 2.46-2.74 3.28-3.78"/><path stroke="#1e1e1e" d="M490 30.845c11.73-1.41 26.16-1.14 40 0m-40 0c9.42-.94 19.77-.2 40 0m0 0c1.17 40.75.01 81.77 0 120m0-120c-.3 41.43-.63 81.01 0 120m0 0c-8.89 1.72-21.73-1.43-40 0m40 0c-9.03-.15-17.41-.54-40 0m0 0c.29-29.51-2.71-55.86 0-120m0 120c.21-27.6-.43-55.88 0-120"/></g><g fill="none" stroke-linecap="round"><path stroke="#a5d8ff" stroke-width=".5" d="M550 30.845q0 0 0 0m0 0q0 0 0 0m-.26 6.4c2.58-2.21 3.38-4.39 5.25-6.04m-5.25 6.04c1.47-1.26 2.96-3.08 5.25-6.04m-4.86 11.68c1.65-3.1 5.04-3.83 10.5-12.07m-10.5 12.07c2.72-2.76 4.11-5.68 10.5-12.07m-10.76 18.47c4.94-4.68 9.53-10.75 15.75-18.11m-15.75 18.11c4.93-4.43 7.41-9.76 15.75-18.11m-15.35 23.75c5.75-5.52 12.18-11.17 20.99-24.15m-20.99 24.15c6.98-7.22 14.77-15.31 20.99-24.15M550 61.325c3.88-7.01 9.13-13.27 26.25-30.19M550 61.325c8.92-9.97 19.65-20.86 26.25-30.19m-26.51 36.59c8.56-9.8 15.58-16.04 32.15-36.98m-32.15 36.98c11.27-13.84 24.73-27.61 32.15-36.98m-31.75 42.62c13.15-14.44 29.56-34.05 36.74-42.26m-36.74 42.26c14.04-16.39 29.41-33.62 36.74-42.26m-37 48.66c16.24-17.72 27.83-34.84 40.67-46.79m-40.67 46.79c11.53-13.05 21.46-25.77 40.67-46.79m-40.28 52.43c10.08-12 16.8-19.89 40.02-46.04m-40.02 46.04c8.22-9.78 16.72-18.54 40.02-46.04m-40.28 52.44c10.41-15.14 25.6-26.62 40.68-46.79m-40.68 46.79c9.8-10.61 19.09-20.33 40.68-46.79m-40.94 53.19c13.07-13.1 22.2-28.53 40.67-46.8m-40.67 46.8c8.53-8.77 16.17-18.16 40.67-46.8m-40.28 52.44c16.72-17.07 30.46-36.99 40.68-46.79m-40.68 46.79c8.98-11.4 18.29-22.18 40.68-46.79m-40.94 53.19c13.61-12.64 22.69-27.07 40.68-46.79m-40.68 46.79c15.6-18.56 31.37-36.76 40.68-46.79m-40.28 52.43c14.23-14.89 27.6-29.78 40.02-46.04m-40.02 46.04c12.85-15.89 26.8-32 40.02-46.04m-40.29 52.44c10.62-11.91 20.92-24.94 40.68-46.79m-40.68 46.79c11.63-13.46 23.78-26.95 40.68-46.79m-40.94 53.19c10.05-12.98 20.34-22.8 40.68-46.8m-40.68 46.8c15.77-17.71 31.25-36.64 40.68-46.8m-37.66 49.42c7.91-12.6 18.49-21.99 38.05-43.77m-38.05 43.77c11.12-12.51 22.37-24.28 38.05-43.77m-32.41 43.38c9.08-9.88 15.21-20.57 32.15-36.98m-32.15 36.98c8.63-11.61 18.53-21.73 32.15-36.98m-27.16 37.34c9.92-10.37 18.57-21.16 26.9-30.95m-26.9 30.95c6.96-7.83 13.37-15.18 26.9-30.95m-21.25 30.55c7.35-5.58 10.96-13.9 21.64-24.9m-21.64 24.9c8.31-9.24 15.61-16.83 21.64-24.9m-16.66 25.26c4.16-5.57 10.07-11.6 16.4-18.87m-16.4 18.87c5.37-6.4 9.77-12.12 16.4-18.87m-10.75 18.48c1.43-4.2 5.43-4.89 11.15-12.83m-11.15 12.83c4.34-3.73 7.3-8.94 11.15-12.83m-6.17 13.19c1.38-1.27 3.56-4.43 5.91-6.8m-5.91 6.8c1.76-1.87 3.24-3.9 5.91-6.8"/><path stroke="#1e1e1e" d="M550 30.845c13.48-1 28.34-1.07 40 0m-40 0c12.5.8 26.48.24 40 0m0 0c-1.55 32.64-1.08 63.69 0 100m0-100c.26 27.34.09 56.38 0 100m0 0c-10.64.46-20.43-.43-40 0m40 0c-11.16.75-24.3-.02-40 0m0 0c.57-37.94.54-75.3 0-100m0 100c1.01-27.74.89-52.98 0-100"/></g><g fill="none" stroke-linecap="round"><path stroke="#a5d8ff" stroke-width=".5" d="M610 30.845q0 0 0 0m0 0q0 0 0 0m-.26 6.4c1.86-1.3 4.25-3.73 5.25-6.04m-5.25 6.04c1.07-1.32 2.56-2.69 5.25-6.04m-4.86 11.68c4.17-4.94 8.33-8.38 10.5-12.07m-10.5 12.07c4.67-4.17 7.43-9.39 10.5-12.07m-10.76 18.47c2.67-3.13 5.96-6.36 15.75-18.11m-15.75 18.11c5.57-7.65 12.25-14.33 15.75-18.11m-15.35 23.75c6.56-8.23 10.75-14.56 20.99-24.15m-20.99 24.15c8.62-8.7 15.34-17.19 20.99-24.15M610 61.325c10.03-10.41 20.23-23.34 26.25-30.19M610 61.325c10.86-11.46 21.17-23.6 26.25-30.19m-26.51 36.59c8.71-9.42 16.94-18.58 32.15-36.98m-32.15 36.98c8.91-9.68 17.63-19.99 32.15-36.98m-31.75 42.62c7.88-9.18 14.88-17.82 36.74-42.26m-36.74 42.26c10.27-12.73 21.2-26.41 36.74-42.26m-37 48.66c14.23-18.35 30.86-34.99 40.67-46.79m-40.67 46.79c14.22-15.99 28.68-32.19 40.67-46.79m-40.28 52.43c8.16-10.47 17.15-17.77 40.02-46.04m-40.02 46.04c8.36-9.92 18.05-20.42 40.02-46.04m-40.28 52.44c10.17-9.99 20.51-24.77 40.68-46.79m-40.68 46.79c11.16-12.49 22.25-23.81 40.68-46.79m-40.94 53.19c10.31-9.57 18.04-21.29 40.67-46.8m-40.67 46.8c13.25-14.85 26.43-29.56 40.67-46.8m-40.28 52.44c15.68-16.9 30.99-37.52 40.68-46.79m-40.68 46.79c11.94-13.67 23.35-26.28 40.68-46.79m-40.94 53.19c10.94-10.68 18.71-20.85 40.68-46.79m-40.68 46.79c14.53-15.37 28.03-32.66 40.68-46.79m-40.28 52.43c10.85-16.11 23.59-28.2 40.02-46.04m-40.02 46.04c11.47-11.64 20.32-24.28 40.02-46.04m-40.29 52.44c11.88-13.09 25.41-28.38 40.68-46.79m-40.68 46.79c15.98-18.45 31.83-36.42 40.68-46.79m-40.94 53.19c9.6-11.34 16.71-22.41 40.68-46.8m-40.68 46.8c9.64-11.87 20.82-23.72 40.68-46.8m-40.28 52.44c11.48-14.04 24.64-28.1 40.67-46.79m-40.67 46.79c13.49-13.85 26.02-28.22 40.67-46.79m-40.93 53.19c7.76-11.8 19.44-22.72 40.67-46.79m-40.67 46.79c11.74-14.1 24.27-28.7 40.67-46.79m-40.28 52.43c12.28-16.86 27.14-32 40.02-46.04m-40.02 46.04c10.85-12.87 22.15-26.27 40.02-46.04m-40.28 52.44c13.23-13.56 27.75-29.02 40.67-46.79m-40.67 46.79c12.74-14.32 23.79-26.78 40.67-46.79m-40.93 53.19c13.37-12.76 25.01-27.52 40.67-46.8m-40.67 46.8c10.79-13.09 20.78-23.94 40.67-46.8m-40.28 52.44c13.74-15.31 27.19-32.52 40.68-46.79m-40.68 46.79c10.28-11.15 18.54-22.37 40.68-46.79m-40.94 53.19c16.05-17.79 31.45-35.38 40.68-46.8m-40.68 46.8c11.67-13.96 24.46-29.32 40.68-46.8m-35.04 46.4c8.47-6.47 15.68-16.67 34.78-40m-34.78 40c7.51-8.4 15.28-19.29 34.78-40m-29.79 40.36c9.06-11.12 20.11-25.34 30.18-34.71m-30.18 34.71c8.72-11.23 17.49-20.07 30.18-34.71m-24.54 34.32c6.4-6.89 14.9-19.81 24.28-27.93m-24.28 27.93c7.15-7.57 12.65-15.14 24.28-27.93m-19.29 28.29c3.47-4.99 9.25-9.8 19.68-22.64m-19.68 22.64c8.24-8.33 15.24-17.97 19.68-22.64m-14.04 22.24c3.57-7.07 10.51-12.29 13.78-15.85m-13.78 15.85c2.79-4.53 6.63-7.94 13.78-15.85m-8.79 16.21c2.59-4.26 5.44-6.28 8.53-9.81m-8.53 9.81c2.17-3.42 6.2-6.04 8.53-9.81m-2.89 9.42c.81-1.2 1.83-2.48 3.28-3.77m-3.28 3.77c1.14-1.35 2.63-3.02 3.28-3.77"/><path stroke="#1e1e1e" d="M610 30.845c9.77.41 17.08 1.38 40 0m-40 0c8.15.24 16.38-.76 40 0m0 0c-1.61 46.3.4 91.44 0 140m0-140c.33 49-.11 99.09 0 140m0 0c-10.24.72-17.11-.43-40 0m40 0c-7.87-1.03-17.74.61-40 0m0 0c.04-41.17.83-80.85 0-140m0 140c-1.56-53.41-.62-107.08 0-140"/></g><g fill="none" stroke-linecap="round"><path stroke="#ffc9c9" stroke-width=".5" d="M430 190.845q0 0 0 0m0 0q0 0 0 0m-.26 6.4c1.85-1.37 3.41-4.94 5.25-6.04m-5.25 6.04c1.62-1.63 2.48-3.43 5.25-6.04m-4.86 11.68c3.39-3.85 4.79-7.95 10.5-12.07m-10.5 12.07c1.67-3.31 4.15-4.22 10.5-12.07m-10.76 18.47c6.53-4.88 7.54-9.07 15.75-18.11m-15.75 18.11c6.35-6.36 12.29-13.66 15.75-18.11m-15.35 23.75c4.06-6.65 9.48-11.64 20.99-24.15m-20.99 24.15c8.32-7.82 14.52-17.97 20.99-24.15M430 221.325c6.29-7.17 14.02-13.93 26.25-30.19M430 221.325c7.22-9.99 15.75-19.45 26.25-30.19m-26.51 36.59c10.43-10.25 16.44-19.59 32.15-36.98m-32.15 36.98c7.6-8.55 15.56-16.23 32.15-36.98m-31.75 42.62c8.65-7.42 13.71-16.52 36.74-42.26m-36.74 42.26c9.77-12 20.66-21.96 36.74-42.26m-37 48.66c14.89-17.17 31.95-36.94 41.33-47.55m-41.33 47.55c14.2-16.49 27.82-31.42 41.33-47.55m-40.94 53.19c12.02-16.71 26.01-33.4 41.33-47.55m-41.33 47.55c12.68-13.8 23.77-27.01 41.33-47.55m-40.93 53.19c10.08-11.22 19.23-23.14 40.67-46.79m-40.67 46.79c9.69-10.44 19.17-21.97 40.67-46.79m-35.69 47.15c12.02-18.11 27.7-30.8 35.43-40.75m-35.43 40.75c12.65-14.85 25-29.2 35.43-40.75m-29.78 40.36c10.33-10.1 18.27-24.39 30.17-34.72m-30.17 34.72c9.06-11.91 19.58-23.05 30.17-34.72m-25.19 35.08c5.33-8.73 12.4-14.36 24.93-28.68m-24.93 28.68c9.21-10.14 17.27-20.37 24.93-28.68m-19.28 28.29c5.31-5.82 11.31-15.52 19.68-22.65m-19.68 22.65c6-5.14 9.94-12.63 19.68-22.65m-14.7 23.01c2.16-3.87 5.52-8.19 14.44-16.61m-14.44 16.61c3.75-4.81 5.57-7.99 14.44-16.61m-8.79 16.21c2.31-2.15 3.45-5.24 8.52-9.81m-8.52 9.81c3.23-4.25 6.09-7.37 8.52-9.81m-3.54 10.17c1.16-.93 2.38-3.33 3.94-4.53m-3.94 4.53c.83-1.41 1.73-2.53 3.94-4.53"/><path stroke="#1e1e1e" d="M430 190.845c13.23-1.57 26.25-1.61 40 0m-40 0c11.69-.65 24.05-.99 40 0m0 0c-.86 13.36-2.2 28.12 0 60m0-60c.76 17.49.21 36.82 0 60m0 0c-7.18 1.08-18.94.09-40 0m40 0c-16.28-.07-31.84.33-40 0m0 0c.39-23.13-1.83-46.63 0-60m0 60c-.18-14.39-1.18-28.16 0-60"/></g><g fill="none" stroke-linecap="round"><path stroke="#ffc9c9" stroke-width=".5" d="M490 150.845q0 0 0 0m0 0q0 0 0 0m-.26 6.4c1.21-2.78 4.31-5.27 5.25-6.04m-5.25 6.04c1.64-1.65 3.4-4.05 5.25-6.04m-4.86 11.68c3.8-2.96 5.26-6.5 10.5-12.07m-10.5 12.07c2.35-2.26 4.18-5.18 10.5-12.07m-10.76 18.47c4.44-8.19 11.04-14.18 15.75-18.11m-15.75 18.11c5.69-5.02 10.2-12.52 15.75-18.11m-15.35 23.75c4.9-9.16 14.68-15.24 20.99-24.15m-20.99 24.15c4.86-5.78 10.44-10.86 20.99-24.15M490 181.325c8.97-10.18 17.48-21.46 26.25-30.19M490 181.325c8.42-9.74 18.02-20.32 26.25-30.19m-26.51 36.59c8.5-9.73 17.44-18.71 32.15-36.98m-32.15 36.98c11.02-11.4 22.61-24.34 32.15-36.98m-31.75 42.62c7.82-9.32 17.67-18.97 36.74-42.26m-36.74 42.26c14.5-16.98 29.09-32.92 36.74-42.26m-37 48.66c17.06-16.64 29.49-36.06 40.67-46.79m-40.67 46.79c8.76-10.17 17.73-20.21 40.67-46.79m-40.28 52.43c14.33-19 30.96-36.13 40.02-46.04m-40.02 46.04c11.67-14.3 22.43-27.44 40.02-46.04m-40.28 52.44c16.76-16.84 29.71-33.25 40.68-46.79m-40.68 46.79c16.09-17.89 32.01-36.8 40.68-46.79m-40.94 53.19c17.13-17.66 33.22-36.75 40.67-46.8m-40.67 46.8c10.34-11.38 20.32-22.7 40.67-46.8m-40.28 52.44c11.41-12.32 22.6-25.76 40.68-46.79m-40.68 46.79c8.39-9.74 16.55-19.41 40.68-46.79m-40.94 53.19c10.8-13.98 22.66-29.84 40.68-46.79m-40.68 46.79c14.57-17.72 30.44-34.73 40.68-46.79m-36.35 47.9c12.99-13.82 26.1-28.05 36.09-41.51m-36.09 41.51c7.55-9 15.45-16.57 36.09-41.51m-30.44 41.12c6.21-6.73 14.54-15.03 30.83-35.47m-30.83 35.47c7.86-8.06 15.76-18.59 30.83-35.47m-25.85 35.83c7.44-8.22 15.05-14.08 25.59-29.44m-25.59 29.44c6.28-6.16 11.3-13.35 25.59-29.44m-19.94 29.04c7.18-7.47 14.33-14.82 20.33-23.39m-20.33 23.39c7.83-8.45 15.49-18.76 20.33-23.39m-15.35 23.75c4.34-5.69 8.19-9.1 15.09-17.35m-15.09 17.35c4.3-3.97 6.99-7.68 15.09-17.35m-9.44 16.96c3.98-2.72 6.35-7.9 9.18-10.57m-9.18 10.57c2.37-3.92 5.36-6.47 9.18-10.57m-4.2 10.93c1.81-1.37 2.01-3.32 4.59-5.28m-4.59 5.28c1.31-1.41 2.91-3.21 4.59-5.28"/><path stroke="#1e1e1e" d="M490 150.845c11.51.42 24.98-.8 40 0m-40 0c9.67.17 20.84.66 40 0m0 0c-1.58 24.2-2.16 49.21 0 80m0-80c.04 25.32-.97 52.19 0 80m0 0c-8.67-.54-22.11-1.43-40 0m40 0c-9.11-.59-18.45-.91-40 0m0 0c-2.06-31.05-.79-59.59 0-80m0 80c.62-24.8-.02-48.23 0-80"/></g><g fill="none" stroke-linecap="round"><path stroke="#ffc9c9" stroke-width=".5" d="M550 130.845q0 0 0 0m0 0q0 0 0 0m-.26 6.4c1.1-1.8 2.23-2.95 5.25-6.04m-5.25 6.04c1.75-1.47 2.95-3.66 5.25-6.04m-4.86 11.68c2.56-2.93 7.47-8.51 10.5-12.07m-10.5 12.07c2.75-3.81 5.34-7.07 10.5-12.07m-10.76 18.47c5.04-4.67 8.68-11.58 15.75-18.11m-15.75 18.11c5.09-6.43 9.3-11.93 15.75-18.11m-15.35 23.75c5.79-4.42 11.47-12.04 20.99-24.15m-20.99 24.15c7.13-6.46 13.4-15.49 20.99-24.15M550 161.325c9.54-13.19 19.86-22.36 26.25-30.19M550 161.325c7.46-6.73 14.01-15.83 26.25-30.19m-26.51 36.59c7.81-10.14 19.14-18.4 32.15-36.98m-32.15 36.98c10.68-11.27 21.39-23.38 32.15-36.98m-31.75 42.62c15.7-14.19 26.26-30.43 36.74-42.26m-36.74 42.26c10.01-10.64 19.22-22.43 36.74-42.26m-37 48.66c14.06-18.74 28.72-35.22 40.67-46.79m-40.67 46.79c13.61-16.74 27.54-33.13 40.67-46.79m-40.28 52.43c11.54-16.68 27.18-31.34 40.02-46.04m-40.02 46.04c13.01-15.01 27.01-30.19 40.02-46.04m-40.28 52.44c8.16-9.22 19.99-23.13 40.68-46.79m-40.68 46.79c10.87-12.14 22.59-25.13 40.68-46.79m-40.94 53.19c14.3-17.59 26.29-33.28 40.67-46.8m-40.67 46.8c12.17-13.68 23.68-25.02 40.67-46.8m-40.28 52.44c12.27-14.19 21.74-28.02 40.68-46.79m-40.68 46.79c10.18-12.83 21.03-25.07 40.68-46.79m-40.94 53.19c14.88-17.38 27.94-29.48 40.68-46.79m-40.68 46.79c14.99-17.64 30.36-35.28 40.68-46.79m-36.35 47.9c12.12-12.31 24.25-27.54 36.09-41.51m-36.09 41.51c9.44-11.29 18.67-22.81 36.09-41.51m-30.44 41.12c10-11.81 18.89-20.95 30.83-35.47m-30.83 35.47c12.29-13.51 24.54-28.35 30.83-35.47m-25.85 35.83c8.14-10.55 19.36-19.47 25.59-29.44m-25.59 29.44c6.67-7.75 12.23-15.19 25.59-29.44m-19.94 29.04c6.01-8.8 15.24-18.24 20.33-23.39m-20.33 23.39c5.38-5.54 11.43-13.18 20.33-23.39m-15.35 23.75c4.86-7.44 8.96-11.81 15.09-17.35m-15.09 17.35c4-5.77 9.55-10.3 15.09-17.35m-9.44 16.96c2.35-2.57 4.39-5.78 9.18-10.57m-9.18 10.57c2.31-2.84 4.98-5.88 9.18-10.57m-4.2 10.93c2.33-2.52 3.68-3.64 4.59-5.28m-4.59 5.28c.9-1.21 2.39-2.49 4.59-5.28"/><path stroke="#1e1e1e" d="M550 130.845c6.8.24 14.93.68 40 0m-40 0c12.82.52 24.41.45 40 0m0 0c.39 15.95-.67 31.63 0 80m0-80c-.74 30.36.47 61.64 0 80m0 0c-7.92-2.26-17.6-.46-40 0m40 0c-14.77-.8-30.98.9-40 0m0 0c-1.37-24.39-1.73-50.77 0-80m0 80c-.81-20.69.72-42.53 0-80"/></g><g fill="none" stroke-linecap="round"><path stroke="#ffc9c9" stroke-width=".5" d="M610 170.845q0 0 0 0m0 0q0 0 0 0m-.26 6.4c1.81-1.66 3.89-3.9 5.25-6.04m-5.25 6.04c1.14-1.36 2.49-2.74 5.25-6.04m-4.86 11.68c4.17-4.87 8.34-8.99 10.5-12.07m-10.5 12.07c4.34-4.39 7.73-9.32 10.5-12.07m-10.76 18.47c3.09-3.59 6.5-7.22 15.75-18.11m-15.75 18.11c5.8-7.29 12.16-14.1 15.75-18.11m-12.07 19.98c5.41-6.54 9.63-12.14 17.71-20.38m-17.71 20.38c6.99-7.43 13.03-14.75 17.71-20.38m-12.73 20.74c6.78-7.24 13.68-15.78 17.72-20.38m-17.72 20.38c7.16-7.73 14.07-15.82 17.72-20.38m-12.07 19.98c4.7-5.17 9.21-10.2 17.71-20.37m-17.71 20.37c4.84-5.38 9.63-11.03 17.71-20.37m-12.73 20.73c3.89-4.52 7.26-8.68 17.72-20.37m-17.72 20.37c5.01-6.14 10.27-12.75 17.72-20.37m-12.07 19.98c5.47-7.3 12.08-13.66 15.74-18.11m-15.74 18.11c5.6-6.16 11.22-12.41 15.74-18.11m-10.76 18.47c2.06-2.94 4.49-4.52 10.5-12.08m-10.5 12.08c2.23-2.46 4.87-5.23 10.5-12.08m-4.85 11.68c1.25-1.17 2.57-3.26 5.25-6.03m-5.25 6.03c1.44-1.63 2.91-3.02 5.25-6.03"/><path stroke="#1e1e1e" d="M610 170.845c12.11.32 24.53-1.17 40 0m-40 0c11.88.15 23.01.14 40 0m0 0c-.22 5.34-1 9.91 0 20m0-20c-.3 6.67-.06 13.92 0 20m0 0c-12.45.68-25.96-.97-40 0m40 0c-12.78-.27-24.31.07-40 0m0 0c-.26-4.85.21-8.92 0-20m0 20c-.05-6.94-.21-14.1 0-20"/></g><g fill="none" stroke-linecap="round"><path stroke="#b2f2bb" stroke-width=".5" d="M430 250.845q0 0 0 0m0 0q0 0 0 0m-.26 6.4c.92-1.45 2.52-2.28 5.25-6.04m-5.25 6.04c1.8-2.13 2.88-3.74 5.25-6.04m-4.86 11.68c2.18-1.76 5.4-7.16 10.5-12.07m-10.5 12.07c3.18-3.7 6.57-7.04 10.5-12.07m-10.76 18.47c7.14-5.82 13.45-15.1 15.75-18.11m-15.75 18.11c5.35-6.44 10.14-11.58 15.75-18.11m-15.35 23.75c7.51-9.2 15.42-16.39 20.99-24.15m-20.99 24.15c6.46-7.79 13.03-16.03 20.99-24.15M430 281.325c10.4-13.91 20.12-25.91 26.25-30.19M430 281.325c7.39-6.62 13.1-14.73 26.25-30.19m-26.51 36.59c10.24-11.34 20.45-23.61 32.15-36.98m-32.15 36.98c9.87-9.76 18.41-19.68 32.15-36.98m-31.75 42.62c11.42-13.48 17.95-23.3 36.74-42.26m-36.74 42.26c13.22-16.12 27.28-32.58 36.74-42.26m-37 48.66c13.57-14.3 26.98-31.06 41.33-47.55m-41.33 47.55c8.68-11.71 18.06-21.93 41.33-47.55m-40.94 53.19c10.58-11.67 17.64-21.65 41.33-47.55m-41.33 47.55c11.15-13.56 23.9-28.26 41.33-47.55m-40.93 53.19c7.16-12.08 20.05-23.43 40.67-46.79m-40.67 46.79c11.82-12.18 23.83-26.52 40.67-46.79m-35.69 47.15c8.38-9.9 15.91-18.75 35.43-40.75m-35.43 40.75c9.14-9.65 16.65-21.11 35.43-40.75m-29.78 40.36c6.87-8.78 16.51-19.37 30.17-34.72m-30.17 34.72c7.11-8.2 13.25-16.92 30.17-34.72m-25.19 35.08c6.19-8.24 15.3-16.29 24.93-28.68m-24.93 28.68c6.78-7.28 11.13-14.36 24.93-28.68m-19.28 28.29c4.38-5.18 10.65-9.83 19.68-22.65m-19.68 22.65c6.62-7.02 13.72-15.1 19.68-22.65m-14.7 23.01c3.6-6.26 9.06-11.56 14.44-16.61m-14.44 16.61c6.01-6.22 10.28-12.83 14.44-16.61m-8.79 16.21c2.1-2.79 2.99-3.43 8.52-9.81m-8.52 9.81c3.28-3.93 6.83-7.87 8.52-9.81m-3.54 10.17c.5-1.05 1.48-2.16 3.94-4.53m-3.94 4.53c1.33-1.33 2.1-2.78 3.94-4.53"/><path stroke="#1e1e1e" d="M430 250.845c13.15-.04 24.86 1.67 40 0m-40 0c13.21.32 26.37.87 40 0m0 0c-.87 16.82-.44 37.18 0 60m0-60c.41 14.82.16 30.05 0 60m0 0c-8.96 1.4-16.86-.85-40 0m40 0c-9.93.47-20.67-1.33-40 0m0 0c-1.95-17.27 1.37-33.88 0-60m0 60c.51-13.82.14-26.59 0-60"/></g><g fill="none" stroke-linecap="round"><path stroke="#b2f2bb" stroke-width=".5" d="M490 230.845q0 0 0 0m0 0q0 0 0 0m-.26 6.4c.69-1 1.68-2.75 5.25-6.04m-5.25 6.04c1.67-1.5 2.61-3.57 5.25-6.04m-4.86 11.68c4.43-5.28 8.29-10.04 10.5-12.07m-10.5 12.07c3.38-3.99 6.1-5.99 10.5-12.07m-10.76 18.47c2.9-5.43 8-10.09 15.75-18.11m-15.75 18.11c4.62-4.5 6.73-8.65 15.75-18.11m-15.35 23.75c3.59-4.33 10.28-13.18 20.99-24.15m-20.99 24.15c6.2-6.75 13.09-13.48 20.99-24.15M490 261.325c8.83-10.44 16.51-18.71 26.25-30.19M490 261.325c10.46-10.85 20.03-23.38 26.25-30.19m-26.51 36.59c7.14-7.84 15.01-16.01 32.15-36.98m-32.15 36.98c9.67-9.06 17.78-20.55 32.15-36.98m-31.75 42.62c10.46-10.76 20.56-20.89 36.74-42.26m-36.74 42.26c11.78-13.79 24.62-26.76 36.74-42.26m-37 48.66c16.46-19.1 30.09-36.73 40.67-46.79m-40.67 46.79c11.28-13.09 22.73-24.4 40.67-46.79m-40.28 52.43c13.73-16.55 29.3-34.66 40.02-46.04m-40.02 46.04c14.44-18.38 30.1-34.56 40.02-46.04m-40.28 52.44c12.65-14.84 25.78-26.44 40.68-46.79m-40.68 46.79c9.36-10.48 17.74-19.61 40.68-46.79m-40.94 53.19c10.16-9.88 18.94-24.45 40.67-46.8m-40.67 46.8c10.08-11.3 20.2-24.23 40.67-46.8m-40.28 52.44c9.94-10.59 18.72-24.55 40.68-46.79m-40.68 46.79c15.51-17.92 31.03-35.57 40.68-46.79m-40.94 53.19c15.1-18.62 28.31-32.4 40.68-46.79m-40.68 46.79c13.73-15.56 28.11-31.62 40.68-46.79m-36.35 47.9c13.79-14.04 27.17-32.07 36.09-41.51m-36.09 41.51c9.48-10.98 20.34-22.83 36.09-41.51m-30.44 41.12c13.42-12.97 25.31-28.88 30.83-35.47m-30.83 35.47c9.17-9.5 15.83-18.63 30.83-35.47m-25.85 35.83c5.93-5.97 14.22-16.53 25.59-29.44m-25.59 29.44c9.15-10.23 17.31-20.45 25.59-29.44m-19.94 29.04c5.59-5.16 11.33-11.29 20.33-23.39m-20.33 23.39c6.84-7.54 11.85-13.92 20.33-23.39m-15.35 23.75c2.65-4.44 7.57-9.19 15.09-17.35m-15.09 17.35c4.96-5.68 10.18-11.15 15.09-17.35m-9.44 16.96c4.01-3.56 5.56-7.08 9.18-10.57m-9.18 10.57c2.53-3.85 6.45-7.78 9.18-10.57m-4.2 10.93c.98-1.58 1.39-2.31 4.59-5.28m-4.59 5.28c1.48-1.36 2.58-2.64 4.59-5.28"/><path stroke="#1e1e1e" d="M490 230.845c9.32-1.08 17.24-.44 40 0m-40 0c13.72.28 27.95.33 40 0m0 0c.43 15.31 1.22 34.06 0 80m0-80c-1.48 16-.9 31.97 0 80m0 0c-13.72-1.19-27.48-1.2-40 0m40 0c-12.54-.62-25.02.57-40 0m0 0c-2.37-26.22-1.82-51.05 0-80m0 80c-.58-18.76.44-36.04 0-80"/></g><g fill="none" stroke-linecap="round"><path stroke="#b2f2bb" stroke-width=".5" d="M550 210.845q0 0 0 0m0 0q0 0 0 0m-.26 6.4c.66-1.41 1.97-2.89 5.25-6.04m-5.25 6.04c1.76-1.78 2.8-3.71 5.25-6.04m-4.86 11.68c3.83-2.35 5.02-7.61 10.5-12.07m-10.5 12.07c2.94-4.4 6.44-7.69 10.5-12.07m-10.76 18.47c5.23-5.9 8.21-10.32 15.75-18.11m-15.75 18.11c5.27-7.39 11.51-14.54 15.75-18.11m-15.35 23.75c8.4-7.02 13.63-15.03 20.99-24.15m-20.99 24.15c6.97-6.52 11.38-13.4 20.99-24.15M550 241.325c7.72-10.91 19.43-21.65 26.25-30.19M550 241.325c10.19-10.04 17.98-21.7 26.25-30.19m-26.51 36.59c6.83-6.33 15.54-15.51 32.15-36.98m-32.15 36.98c9.03-9.25 17.19-17.69 32.15-36.98m-31.75 42.62c14.6-16.49 27.14-29.94 36.74-42.26m-36.74 42.26c15.05-16.88 28.94-31.89 36.74-42.26m-37 48.66c11.5-15.95 25.33-29.3 40.67-46.79m-40.67 46.79c10.08-12.77 20.56-24.4 40.67-46.79m-40.28 52.43c9.56-11.47 21.16-25.82 40.02-46.04m-40.02 46.04c10.68-11.46 21.18-24.95 40.02-46.04m-40.28 52.44c14.57-13.46 24.39-29.65 40.68-46.79m-40.68 46.79c9.94-10.36 19.06-21.77 40.68-46.79m-40.94 53.19c11.48-16.4 24.9-31.77 40.67-46.8m-40.67 46.8c9.24-10.82 20.83-23.48 40.67-46.8m-40.28 52.44c14.19-18.59 28.78-35.88 40.68-46.79m-40.68 46.79c15.87-18.8 32.32-36.49 40.68-46.79m-40.94 53.19c9.18-12.15 23.68-24.32 40.68-46.79m-40.68 46.79c14.49-16.71 28.99-32.74 40.68-46.79m-40.28 52.43c13.47-13.72 24.09-27.8 40.02-46.04m-40.02 46.04c15.84-18.76 31.4-36.08 40.02-46.04m-40.29 52.44c9.33-11.81 21.28-22.83 40.68-46.79m-40.68 46.79c12.41-13.58 23.51-27.16 40.68-46.79m-40.94 53.19c14.85-15.74 31.34-34.89 40.68-46.8m-40.68 46.8c8.14-10.6 16.54-18.7 40.68-46.8m-37.66 49.42c11.5-12.91 22.22-25.93 38.05-43.77m-38.05 43.77c14.13-14.89 26.23-30.39 38.05-43.77m-32.41 43.38c6.7-10.87 16.56-18.99 32.15-36.98m-32.15 36.98c7.99-9.08 17.02-19.11 32.15-36.98m-27.16 37.34c8.32-9.68 15.77-20.07 26.9-30.95m-26.9 30.95c7.54-8.65 14.83-16.42 26.9-30.95m-21.25 30.55c6.42-8.69 16.92-19.99 21.64-24.9m-21.64 24.9c5.55-5.58 10.96-13.16 21.64-24.9m-16.66 25.26c5.88-6.74 10.56-13.09 16.4-18.87m-16.4 18.87c3.24-4.8 6.16-8.69 16.4-18.87m-10.75 18.48c3.49-2.62 6.6-6.6 11.15-12.83m-11.15 12.83c4.16-5.41 8.53-9.54 11.15-12.83m-6.17 13.19c1.52-2.09 2.91-3.03 5.91-6.8m-5.91 6.8c1.97-2.4 4.73-4.83 5.91-6.8"/><path stroke="#1e1e1e" d="M550 210.845c8.22-1.18 16.76.36 40 0m-40 0c10.83-.16 21.32-1.26 40 0m0 0c-.35 27.66-.71 58.17 0 100m0-100c-1.44 27.4-1.33 52.51 0 100m0 0c-10.02.13-16.26 1.89-40 0m40 0c-13.74.18-24.79.4-40 0m0 0c.32-36.53-1-71.11 0-100m0 100c-.12-27.51-.72-56.61 0-100"/></g><g fill="none" stroke-linecap="round"><path stroke="#b2f2bb" stroke-width=".5" d="M610 190.845q0 0 0 0m0 0q0 0 0 0m-.26 6.4c2.06-1.3 2.15-3.39 5.25-6.04m-5.25 6.04c1.41-1.4 2.95-2.82 5.25-6.04m-4.86 11.68c3.5-2.75 8.3-6.86 10.5-12.07m-10.5 12.07c1.55-2.8 3.65-5.31 10.5-12.07m-10.76 18.47c4.57-4.72 12.95-11.45 15.75-18.11m-15.75 18.11c4.2-4.81 7.63-7.84 15.75-18.11m-15.35 23.75c6.43-9.19 17.11-18.04 20.99-24.15m-20.99 24.15c7.55-8.38 16.76-19.34 20.99-24.15M610 221.325c9.63-11.32 22.07-24.72 26.25-30.19M610 221.325c10.21-11.33 18.14-22.34 26.25-30.19m-26.51 36.59c10-10.95 16.53-21.07 32.15-36.98m-32.15 36.98c7.86-9.25 14.05-16.46 32.15-36.98m-31.75 42.62c7.49-9.26 15.4-16.33 36.74-42.26m-36.74 42.26c10.14-13.12 22.55-24.4 36.74-42.26m-37 48.66c10.38-11.04 19.88-20.03 41.33-47.55m-41.33 47.55c12.68-13.78 23.46-28.65 41.33-47.55m-40.94 53.19c8.69-8.23 15.69-17.5 41.33-47.55m-41.33 47.55c16.45-17.95 31.36-37.16 41.33-47.55m-41.59 53.95c8.71-11.93 18.2-23.01 41.33-47.55m-41.33 47.55c13.04-13.52 23.88-27.99 41.33-47.55m-41.59 53.95c16.02-19.02 32.02-37.54 41.33-47.55m-41.33 47.55c13.9-15.36 27.47-30.71 41.33-47.55m-40.94 53.19c12.63-16.51 27.55-33.8 41.33-47.55m-41.33 47.55c11.09-12.51 22.01-25.66 41.33-47.55m-41.59 53.95c12.01-13.49 24.61-27.05 41.33-47.55m-41.33 47.55c10.18-12.73 20.64-23.74 41.33-47.55m-40.93 53.19c15.83-17.99 31.31-38.04 41.33-47.55m-41.33 47.55c9.24-12.62 20.04-23.65 41.33-47.55m-41.6 53.95c12.37-13.63 25.12-25.94 41.34-47.55m-41.34 47.55c11.07-12.47 20.77-25.45 41.34-47.55m-41.6 53.95c10.49-15.49 23.49-27.91 41.33-47.55m-41.33 47.55c14.73-16.23 28.62-32.63 41.33-47.55m-40.93 53.19c10.82-12.17 20.59-23.37 41.33-47.55m-41.33 47.55c12.25-13.18 22.91-27.53 41.33-47.55m-41.59 53.95c15.92-17.69 29.8-32.06 41.33-47.55m-41.33 47.55c11.74-13.81 24.22-27.77 41.33-47.55m-40.94 53.19c13.35-15.68 24.72-30.07 41.33-47.55m-41.33 47.55c8.84-11.21 18.89-20.46 41.33-47.55m-40.93 53.19c14.97-14.38 26.69-32.12 40.67-46.79m-40.67 46.79c11.65-13.12 24.39-28.51 40.67-46.79m-35.03 46.4c10.27-11.24 19.31-23.11 34.77-40m-34.77 40c13.24-14.72 27.3-30.44 34.77-40m-29.78 40.36c11.48-14.06 20.89-23.62 30.17-34.72m-30.17 34.72c5.12-7.09 13.36-14.07 30.17-34.72m-24.53 34.32c6.79-6.88 14.21-15.43 24.27-27.92m-24.27 27.92c6.23-8.1 12.9-15.13 24.27-27.92m-19.28 28.28c7.2-7.03 9.57-11.77 19.68-22.64m-19.68 22.64c5.95-8.29 13.59-15.7 19.68-22.64m-14.04 22.25c2.74-5.54 8.08-8.75 13.78-15.85m-13.78 15.85c2.4-2.68 6.42-6.29 13.78-15.85m-8.79 16.21c2.12-4.1 4.52-4.79 8.52-9.81m-8.52 9.81c2.69-3.34 5.87-6.95 8.52-9.81m-2.88 9.42c1.28-1.2 2.47-2.7 3.28-3.78m-3.28 3.78c.9-1.23 2.16-2.43 3.28-3.78"/><path stroke="#1e1e1e" d="M610 190.845c12.64 1.27 21.31-.26 40 0m-40 0c15.15-.68 29.93-.87 40 0m0 0c.91 30.19.67 65.38 0 120m0-120c-1.45 35.16-1.21 70.75 0 120m0 0c-8.03.01-20.89.37-40 0m40 0c-10.91.46-20.35-.91-40 0m0 0c.49-34.44 2.07-68.72 0-120m0 120c1.11-39.01.72-76.93 0-120"/></g><g stroke-linecap="round"><path fill="none" stroke="#1e1e1e" d="M1211.486 10.845c1.17 112.13-.41 224.32 0 300m0-300c-1.96 118.4-2 235.79 0 300m0 0c115.66-.99 230.75-1.87 300 0m-300 0c71.77.39 143.44.26 300 0"/><path fill="#1e1e1e" fill-rule="evenodd" d="m1212.466 12.115 5.29 12.99-11.96.51 6.6-16.53"/><path fill="none" stroke="#1e1e1e" d="M1211.486 10.845c3.58 5.66 4.32 11.44 6.34 13.59m-6.34-13.59c2.18 5.91 4.64 10.84 6.34 13.59m0 0c-4.01.39-8.51-.37-12.68.01m12.68-.01c-2.74-.25-5.58-.37-12.68.01m0 0c2.04-3.72 4.05-8.11 6.34-13.6m-6.34 13.6c1.42-3.05 2.5-5.81 6.34-13.6m0 0q0 0 0 0m0 0q0 0 0 0"/><path fill="#1e1e1e" fill-rule="evenodd" d="m1512.466 312.115-14.64 5.75.7-12.16 13.87 3.38"/><path fill="none" stroke="#1e1e1e" d="M1511.486 310.845c-3.82 3.13-10.49 6.23-13.58 6.36m13.58-6.36c-5.58 3.24-10.95 5.34-13.58 6.36m0 0c.89-4.54 1.23-10.15-.02-12.68m.02 12.68c.33-3.24.51-6.37-.02-12.68m0 0c3.84 1.6 7.77 2.47 13.6 6.32m-13.6-6.32c3.09 1.18 5.68 2.57 13.6 6.32m0 0q0 0 0 0m0 0q0 0 0 0"/></g><g fill="none" fill-rule="evenodd" stroke-linecap="round"><path stroke="#eebefa" stroke-width=".5" d="M1210.349 110.845q0 0 0 0m0 0q0 0 0 0m-.26 6.4c2.57-2.31 5.55-3.77 9.84-11.32m-9.84 11.32c3.68-3.76 6.93-8.67 9.84-11.32m-9.45 16.96c6.9-7.12 15.44-15.87 18.37-21.13m-18.37 21.13c7.13-6.73 11.77-14.34 18.37-21.13m-18.63 27.53c11.61-11.57 21.13-23.54 28.21-32.45m-28.21 32.45c5.93-7.17 13.44-16.53 28.21-32.45m-27.81 38.09c11.37-13.63 24.09-27.96 37.39-43.02m-37.39 43.02c13.26-16.57 27.58-32.06 37.39-43.02m-37.66 49.42c13.62-14.11 29-29.43 46.59-53.58m-46.59 53.58c13.54-15.41 27.09-30.51 46.59-53.58m-46.85 59.98c12.78-16.86 27.52-31.86 56.42-64.91m-56.42 64.91c13.5-16.9 27.6-33.69 56.42-64.91m-56.02 70.55c23.92-29.83 50.89-57.32 65.6-75.47m-65.6 75.47c14.13-15.01 26.93-31.45 65.6-75.47m-65.86 81.87c28.54-32.96 55.88-63.17 75.44-86.79m-75.44 86.79c21.28-24.43 43.87-50.5 75.44-86.79m-75.05 92.43c20.15-27.24 43.14-51.53 83.98-96.6m-83.98 96.6c25.84-29.27 49.43-57.39 83.98-96.6m-84.24 103c30.91-37.3 61.76-74.39 93.82-107.92m-93.82 107.92c35.63-43.8 72.57-84.1 93.82-107.92m-94.08 114.32c38.71-44.31 75.32-88 103.66-119.25m-103.66 119.25c32.08-39.09 65.12-76.06 103.66-119.25m-103.27 124.89c30.08-37.52 63.72-74.69 112.19-129.06m-112.19 129.06c41.99-50.82 84.18-100.97 112.19-129.06m-112.45 135.46c36.39-42.48 72.39-83.52 120.72-138.87m-120.72 138.87c25.02-28.16 49.72-56.68 120.72-138.87m-120.32 144.51c38.12-48.35 79.73-90.8 122.68-141.13m-122.68 141.13c41.86-47.12 84.52-94.93 122.68-141.13m-122.95 147.53c34.45-38.49 67.77-77.55 125.31-144.15m-125.31 144.15c47.78-52.84 93.4-107.5 125.31-144.15m-125.57 150.55c35.47-43.47 75.64-87.26 127.93-147.17m-127.93 147.17c29.55-35.89 60.06-71.07 127.93-147.17m-127.53 152.81c39.71-45.66 82.02-90.87 129.9-149.43m-129.9 149.43c28.98-32.78 58.67-67.21 129.9-149.43m-130.16 155.83c27.96-33.14 56.07-62.22 132.52-152.45m-132.52 152.45c38.52-45.71 79.46-91.66 132.52-152.45m-132.13 158.09c27.85-32.22 53.86-62.74 133.84-153.96m-133.84 153.96c27.77-30.02 56.48-62.34 133.84-153.96m-134.1 160.36c30.29-30.4 58.28-64.6 136.46-156.98m-136.46 156.98c37.52-44.14 74.88-88.14 136.46-156.98m-136.72 163.38c54.19-63.83 107.01-124.53 139.08-160m-139.08 160c53.5-59.23 105.24-119.48 139.08-160m-138.69 165.64c54.46-61.54 109.95-125.28 141.06-162.26m-141.06 162.26c46.57-53.02 93.41-105.62 141.06-162.26m-141.32 168.66c35.49-40.92 70.13-79.91 143.68-165.28m-143.68 165.28c36.67-42.07 72.77-82.13 143.68-165.28m-134.1 160.35c51.13-61.49 105.67-122 136.46-156.98m-136.46 156.98c48.39-56.81 97.55-112.69 136.46-156.98m-126.88 152.06c26.08-30.59 49.35-60.14 129.24-148.68m-129.24 148.68c41.87-49.22 82.95-96.73 129.24-148.68m-120.32 144.51c26.13-30.95 55.89-60.53 122.69-141.13m-122.69 141.13c35.98-40.45 69.81-80.62 122.69-141.13m-113.11 136.21c28.26-34.17 54.4-66.71 115.47-132.83m-115.47 132.83c44.44-48.7 87.3-97.97 115.47-132.83m-105.89 127.91c42.82-46.92 84.24-97.17 108.25-124.53m-108.25 124.53c38.7-45.84 77.61-88.4 108.25-124.53m-99.32 120.36c22.4-22.44 42.27-47.94 101.03-116.23m-101.03 116.23c35.41-40.32 70.65-82.46 101.03-116.23m-91.46 111.31c22.63-23.64 42.67-52.78 93.82-107.93m-93.82 107.93c25.35-27.51 47.72-52.85 93.82-107.93m-84.24 103c21.92-23.66 43.45-52.47 90.54-104.15m-90.54 104.15c23.16-30.35 48.92-58.91 90.54-104.15m-80.96 99.23c29.59-38.92 62.08-74.31 88.57-101.89m-88.57 101.89c32.08-38.08 66.25-74.92 88.57-101.89m-79.64 97.72c18.36-22.09 37.06-41.94 87.25-100.37m-87.25 100.37c32.12-36.08 62.62-71.42 87.25-100.37m-77.67 95.45c31.65-33.75 61.96-68.53 84.63-97.36m-84.63 97.36c29.33-33.96 59.84-67.45 84.63-97.36m-75.05 92.44c22.27-23.2 42.18-48.6 82.66-95.1m-82.66 95.1c22.81-27.2 44.7-53.27 82.66-95.1m-75.05 92.44c31.42-35.28 61.92-69.43 82.66-95.1m-82.66 95.1c27.86-30.72 55.79-62.67 82.66-95.1m-78.99 96.97c17.7-20.38 35.69-41.04 86.6-99.62m-86.6 99.62c24.65-27.24 49.87-56.9 86.6-99.62m-82.92 101.49c25.98-30.68 50.91-59.51 89.88-103.4m-89.88 103.4c27.05-30.86 56.57-64.1 89.88-103.4m-86.21 105.27c19.7-26.79 42.14-52.01 90.54-104.15m-90.54 104.15c28.72-33.14 57.84-66.6 90.54-104.15m-86.86 106.02c28.39-31.29 54.91-65.14 89.88-103.4m-89.88 103.4c34.42-38.94 71.03-80.18 89.88-103.4m-86.21 105.27c33.74-38.22 67.57-78.27 89.23-102.65m-89.23 102.65c26.59-29.53 51.65-58.85 89.23-102.65m-84.9 103.76c24.33-26.04 47.46-53.04 87.26-100.38m-87.26 100.38c27.49-30.77 53.95-62.53 87.26-100.38m-83.58 102.25c35.4-39.52 66.17-76.46 86.6-99.62m-86.6 99.62c31.88-38.1 64.21-77.15 86.6-99.62m-82.93 101.49c19.15-24.88 38.76-47.83 85.95-98.87m-85.95 98.87c29.12-31.3 56.85-62.31 85.95-98.87m-82.27 100.74c21.97-26 48.16-51.53 85.29-98.11m-85.29 98.11c29.04-34.49 60.19-70.24 85.29-98.11m-81.62 99.98c28.55-33.22 57.81-65.67 83.98-96.6m-83.98 96.6c27.49-30.43 55.77-61.62 83.98-96.6m-79.65 97.71c18.42-20.54 32.84-38.98 82.67-95.09m-82.67 95.09c20.03-23.21 41.29-46.68 82.67-95.09m-75.06 92.43c27.62-32.16 57.7-67.17 78.08-89.81m-78.08 89.81c24.14-29.61 51.42-58.96 78.08-89.81m-70.46 87.16c26.83-32.27 56.47-64.51 72.82-83.78m-72.82 83.78c20.72-23.54 40.88-47.62 72.82-83.78m-65.21 81.12c21.64-26.69 43.97-49.92 68.23-78.49m-68.23 78.49c27.09-31.27 51.99-61.22 68.23-78.49m-61.28 76.58c14.39-16.89 27.43-30.41 64.3-73.96m-64.3 73.96c23.08-25.37 44.79-51.48 64.3-73.96m-56.69 71.3c15.98-20.17 37.92-42.93 59.7-68.67m-59.7 68.67c13.75-17.02 29.63-32.63 59.7-68.67m-52.09 66.02c11.86-14.39 25.45-32.35 54.46-62.65m-54.46 62.65c16.62-19.63 33.88-39.09 54.46-62.65m-46.84 59.99c12.41-13.18 19.96-24.67 49.86-57.36m-49.86 57.36c16.62-17.16 31.42-35.59 49.86-57.36m-43.56 56.21c12.65-16.19 24.29-27.87 46.58-53.59m-46.58 53.59c16.6-16.61 30.58-35.35 46.58-53.59m-42.25 54.7c10.2-11.75 21.34-23.12 44.61-51.32m-44.61 51.32c14.07-16.11 27.35-31.68 44.61-51.32m-40.28 52.44c12.58-14.66 25.12-31.21 43.3-49.81m-43.3 49.81c12.32-15.99 26.02-31.13 43.3-49.81m-39.63 51.68c16.74-16.64 30.46-35.97 42.65-49.06m-42.65 49.06c16.56-18.78 32.39-37.3 42.65-49.06m-38.32 50.17c13.05-15.04 21.7-27.77 41.33-47.55m-41.33 47.55c10.83-10.81 22.07-24.07 41.33-47.55m-37 48.67c12.91-10.75 23.92-23.86 38.06-43.78m-38.06 43.78c7.15-8.32 14.31-17.86 38.06-43.78m-34.38 45.65c5.99-8.47 14.94-17.85 34.77-40m-34.77 40c11.85-14.23 23.75-27.26 34.77-40m-30.44 41.11c8.29-11.9 20.67-24.04 30.18-34.72m-30.18 34.72c7.55-8.77 17.37-18.87 30.18-34.72m-25.85 35.84c7.72-6.62 12.01-13.09 25.59-29.44m-25.59 29.44c5.57-5.68 10.19-13.15 25.59-29.44m-21.91 31.3c6.32-4.25 10.82-10.77 22.3-25.66m-22.3 25.66c5.83-6.97 9.57-11.01 22.3-25.66m-17.97 26.78c5.33-7.04 14.21-13.25 17.71-20.38m-17.71 20.38c5.84-5.71 12.23-13.27 17.71-20.38m-13.38 21.49c4.29-4.41 11.21-13.65 13.77-15.84m-13.77 15.84c4.04-5.66 8.74-9.61 13.77-15.84m-10.1 17.71c4.54-4.77 5.69-7.07 9.84-11.32m-9.84 11.32c2.99-4.03 7.1-7.25 9.84-11.32m-5.51 12.44c2.18-2.28 3.42-3.48 5.25-6.04m-5.25 6.04c1.67-1.71 3.57-3.9 5.25-6.04m-.92 7.15c.48-.5.96-1.36 1.32-1.51m-1.32 1.51c.42-.64 1.11-1.13 1.32-1.51"/><path stroke="#1e1e1e" d="M1210.349 110.845c26.32-14.84 49.78-27.14 120-60m-120 60c41.88-21.17 82.66-41.35 120-60m0 0c13.96 20.01 28.49 42.32 40 60m-40-60c13.43 19.22 24.34 37.22 40 60m0 0c20.19-8.25 41.55-11.96 60-20m-60 20c15.03-4.91 31.25-10.32 60-20m0 0c23.93 24.85 47.18 46.78 60 60m-60-60c18.75 19.18 38.35 37.95 60 60m0 0c-.1 23.18-.52 46.78 0 60m0-60c-.83 13.69-.11 27.5 0 60m0 0c-15.72-6.02-30.75-11.36-60-20m60 20c-18.84-6.58-37.72-11.84-60-20m0 0c-17.1 7.79-37.35 10.28-60 20m60-20c-17.69 4.83-32.89 10.92-60 20m0 0c-9.96-5.25-19.87-8.71-40-20m40 20c-12.79-6.65-26.17-13.31-40-20m0 0c-41.97 19.3-81.07 38.75-120 60m120-60c-26.3 12.79-52.82 25.44-120 60m0 0c-.09-46.53-.73-91.26 0-140m0 140c.35-46.2 1.22-91.51 0-140m0 0q0 0 0 0m0 0q0 0 0 0"/></g><g fill="none" fill-rule="evenodd" stroke-linecap="round"><path stroke="#ffec99" stroke-width=".5" d="M1210.398 250.845q0 0 0 0m0 0q0 0 0 0m-.26 6.4c3.29-2.65 6.86-8.94 9.84-11.32m-9.84 11.32c2.19-1.94 4.14-5.16 9.84-11.32m-9.45 16.96c5.17-5.84 9.66-12.25 18.37-21.13m-18.37 21.13c6.96-7.81 12.23-14.4 18.37-21.13m-18.63 27.53c9.32-10.57 17.15-20.41 28.21-32.45m-28.21 32.45c8.02-8.79 15.99-19.93 28.21-32.45m-28.47 38.85c13.99-13.72 29.09-29.59 38.05-43.78m-38.05 43.78c9.38-12.03 21.04-22.65 38.05-43.78m-37.66 49.42c12.87-14.25 24.4-31.7 47.24-54.34m-47.24 54.34c16.69-18.57 31.11-36.33 47.24-54.34m-47.5 60.74c13.64-13.03 25.36-26.34 56.42-64.91m-56.42 64.91c14.11-16.81 29.33-33.28 56.42-64.91m-56.68 71.31c22.37-25.16 41.93-52.71 66.26-76.23m-66.26 76.23c15.02-17.82 28.69-34.32 66.26-76.23m-65.86 81.87c27.56-32.27 55.7-64.7 75.44-86.79m-75.44 86.79c16.81-17.91 32.89-37.74 75.44-86.79m-75.7 93.19c19.39-23.5 43.25-49.09 85.28-98.12m-85.28 98.12c18.15-19.87 36.14-41.52 85.28-98.12m-84.89 103.76c21.98-23.87 42.15-46.69 93.82-107.92m-93.82 107.92c30.26-34.3 60.78-69.68 93.82-107.92m-88.18 107.52c31.16-32.12 58.79-65.55 97.76-112.45m-97.76 112.45c38.54-45.13 78.15-88.72 97.76-112.45m-92.77 112.81c38.22-42.14 75.85-87.03 102.34-117.73m-102.34 117.73c37.25-42.57 75.07-86.21 102.34-117.73m-96.7 117.34c19.82-26.22 41.55-47.96 104.32-120m-104.32 120c24.4-28.14 47.8-55.4 104.32-120m-99.33 120.36c23.27-28.24 50.06-57.2 103-118.49m-103 118.49c23.26-26.28 45.06-52.65 103-118.49m-97.36 118.1c39.16-43.99 77.95-89.34 101.04-116.23m-101.04 116.23c38.89-46.09 79.48-92.21 101.04-116.23m-96.05 116.59c33.12-33.96 60.23-70.97 99.72-114.72m-99.72 114.72c36.29-43.13 74.96-84.64 99.72-114.72m-94.08 114.32c31.43-35.4 60.57-69.83 97.76-112.45m-97.76 112.45c33.46-38.3 66.09-75.95 97.76-112.45m-92.77 112.81c23.46-27.44 49.25-55.23 96.44-110.94m-96.44 110.94c20.09-21.53 40.34-45.29 96.44-110.94m-90.8 110.55c33.66-38.04 69.42-79.62 94.48-108.68m-94.48 108.68c34.08-39.63 68.2-78.64 94.48-108.68m-89.49 109.04c34.88-41.12 70.01-82.64 93.16-107.17m-93.16 107.17c25.61-31.51 51.82-63.03 93.16-107.17m-87.52 106.77c33.89-40.58 67.16-75 91.2-104.9m-91.2 104.9c25.64-30.8 51.75-59.88 91.2-104.9m-86.21 105.26c20.59-24.91 44.24-49.23 89.88-103.39m-89.88 103.39c27.62-30.95 54.74-61.63 89.88-103.39m-84.24 103c19.9-25.77 42.75-50.96 87.92-101.13m-87.92 101.13c18.56-23.24 37.68-45.02 87.92-101.13m-82.93 101.49c34.8-41.26 70.42-80.98 87.91-101.13m-87.91 101.13c26.85-32.06 55.04-63.83 87.91-101.13m-82.27 100.73c32.86-39.98 66.15-75.5 89.23-102.64m-89.23 102.64c35.68-37.7 67.99-77.4 89.23-102.64m-84.24 103c23.14-25.03 42.75-49.43 91.85-105.66m-91.85 105.66c27.35-32.49 55.06-65.51 91.85-105.66m-86.21 105.27c20.43-25.98 43.13-54.35 93.82-107.93m-93.82 107.93c25.44-27.38 49.85-56.08 93.82-107.93m-88.83 108.29c37.83-39.65 73.97-82.1 96.44-110.94m-96.44 110.94c25.07-27.97 48.77-55.88 96.44-110.94m-90.8 110.54c37.78-42.04 72.3-83.99 97.76-112.45m-97.76 112.45c27.68-32.3 55.34-65.17 97.76-112.45m-92.77 112.81c25.21-29.49 53.9-63.12 100.38-115.47m-100.38 115.47c21.81-25.16 42.15-48.78 100.38-115.47m-95.39 115.83c22.14-26.6 44.1-51.89 103-118.49m-103 118.49c36.95-43.31 73.4-84.57 103-118.49m-97.36 118.1c41.6-45.09 81.26-91.77 104.31-120m-104.31 120c26.51-30.28 53.32-58.89 104.31-120m-99.32 120.36c26.45-29.69 51.39-54.53 103-118.49m-103 118.49c30.34-34.95 58.8-67.69 103-118.49m-97.36 118.1c24.86-26.59 46.72-53.14 101.69-116.98m-101.69 116.98c35.04-40.82 70.46-81.38 101.69-116.98m-96.7 117.34c26.37-29.74 50.56-55.93 101.03-116.23m-101.03 116.23c33.96-41.95 70.12-82.24 101.03-116.23m-95.39 115.83c30.16-35.78 63.27-70.64 99.07-113.96m-99.07 113.96c25.58-29.63 50.09-58.21 99.07-113.96m-94.08 114.32c25.38-27.84 48.93-57.2 98.41-113.21m-98.41 113.21c39.02-44.45 77.39-88.74 98.41-113.21m-92.77 112.82c36.81-45.05 76.51-87.21 97.1-111.7m-97.1 111.7c23.47-27.84 48.75-55.92 97.1-111.7m-92.11 112.06c21.38-24.84 41.84-47.74 95.78-110.19m-95.78 110.19c27.05-30.99 52.61-60.52 95.78-110.19m-90.14 109.79c23.06-27.49 47.24-54.69 94.47-108.68m-94.47 108.68c36.68-40.66 73.02-83.16 94.47-108.68m-89.48 109.04c30.88-33.61 61.93-70.87 93.81-107.92m-93.81 107.92c19.57-24.46 40.89-47.57 93.81-107.92m-88.17 107.53c28.94-30.43 56.43-63.31 91.85-105.66m-91.85 105.66c20.87-25.49 42.4-49.1 91.85-105.66m-86.86 106.02c25.03-29.3 52.03-56.95 91.19-104.91m-91.19 104.91c27.24-30.34 55.62-63.07 91.19-104.91m-85.55 104.51c31.58-33.74 63.02-71.72 89.88-103.39m-89.88 103.39c30.92-35.35 58.86-69.85 89.88-103.39m-84.89 103.75c17-21.42 35.31-43.17 88.57-101.88m-88.57 101.88c31.29-35.36 61.63-70.96 88.57-101.88m-82.93 101.49c22.85-28.97 49.65-56.39 87.26-100.38m-87.26 100.38c30.55-35.3 60.13-69.78 87.26-100.38m-82.27 100.74c28.67-35.88 60.99-69.81 83.32-95.85m-83.32 95.85c17.87-20.37 37.49-42.89 83.32-95.85m-77.68 95.45c29.26-33.42 54-64.67 78.07-89.81m-78.07 89.81c26.55-32.4 51.94-61.48 78.07-89.81m-73.08 90.17c18.76-21.32 34.25-41 72.82-83.77m-72.82 83.77c24.55-28.06 48.5-56.58 72.82-83.77m-67.18 83.38c19.08-22.35 39.27-47.41 66.92-76.98m-66.92 76.98c18.55-21.04 36.25-41.7 66.92-76.98m-61.93 77.34c15.99-18.66 31.24-38.19 62.32-71.7m-62.32 71.7c21.4-26.49 44.92-52.37 62.32-71.7m-57.33 72.06c12.81-17.99 29.54-31.88 57.07-65.66m-57.07 65.66c15.65-19.16 30.79-36.91 57.07-65.66m-51.43 65.26c11.61-13.88 27.55-29.57 51.83-59.62m-51.83 59.62c15.67-17.96 33.97-37.18 51.83-59.62m-46.84 59.98c16.88-20.19 37.1-40.8 46.58-53.58m-46.58 53.58c9.21-11.77 19.08-22.91 46.58-53.58m-40.94 53.19c13.87-18.5 28.83-32.94 40.67-46.79m-40.67 46.79c10.38-13.09 21.34-25.17 40.67-46.79m-35.68 47.15c9.17-8.41 17.06-19.42 36.08-41.51m-36.08 41.51c12.25-12.9 23.14-26.53 36.08-41.51m-30.44 41.12c5.8-7.83 12.71-15.5 30.18-34.72m-30.18 34.72c6.86-8.11 12.91-13.39 30.18-34.72m-25.19 35.08c6.76-7.78 17.16-18.19 25.58-29.44m-25.58 29.44c9.38-10.42 18.57-20.96 25.58-29.44m-19.94 29.04c3.96-6.18 10.24-14.62 19.68-22.64m-19.68 22.64c3.47-3.87 8.94-8.87 19.68-22.64m-14.69 23c7.55-5.15 10.75-13.79 14.43-16.6m-14.43 16.6c3.36-5.54 8.06-9.62 14.43-16.6m-8.79 16.21c2.45-5.41 6.27-7.92 9.18-10.57m-9.18 10.57c2.27-2.62 4.36-6.13 9.18-10.57m-4.19 10.93c1.44-1.77 2.27-3.7 3.93-4.53m-3.93 4.53c1.66-1.64 2.88-2.93 3.93-4.53"/><path stroke="#1e1e1e" d="M1210.398 250.845c34.68-20.46 71.74-35.84 119.6-60m-119.6 60c46.6-22.88 93.33-44.51 119.6-60m0 0c14.56 6.84 31.43 15.4 40 20m-40-20c9.71 5.2 17.73 10.13 40 20m0 0c19.61-6.29 37.24-11.74 60-20m-60 20c21.95-6.62 44.36-15.05 60-20m0 0c12.81 5.35 25.93 6.43 60 20m-60-20c23.42 8.22 45.81 15.77 60 20m0 0c2.02 38.55.51 78.69 0 100m0-100c.88 37.88 1.59 76.7 0 100m0 0c-110.49 2.07-222.56-.51-280 0m280 0c-63.14.63-127 .67-280 0m0 0c-.3-18.15.09-37.65.4-60m-.4 60c.57-14.3-.01-26.67.4-60m0 0q0 0 0 0m0 0q0 0 0 0"/></g><path fill="none" stroke="#1971c2" stroke-linecap="round" stroke-width="2" d="M810.363 170.845c15.8-7.07 31.73-14.71 40-20m-40 20c15.21-7.9 28.42-14.29 40-20m0 0c6.05 4.97 8.23 9.9 20 20m-20-20c5.28 5.21 9.39 10.81 20 20m0 0c6.75-9.53 15.43-17.36 40-40m-40 40c10-9.84 18.55-19.53 40-40m0 0c13.5 16.5 30.33 27.86 40 40m-40-40c11.71 12.15 22.77 22.51 40 40m0 0c15.5-21.48 29.71-43.86 40-60m-40 60c14.63-22.12 28.66-43.23 40-60m0 0c7.81 8.94 17.1 17.23 40 40m-40-40c10.69 12.04 23.23 23.31 40 40m0 0c12.43 19.79 23.8 37.04 40 60m-40-60c12.1 17.57 23.37 33.59 40 60m0 0c7.51-13.39 14.82-27.94 20-40m-20 40c7.25-16.07 16.07-30.57 20-40"/><path fill="none" stroke="#e8590c" stroke-linecap="round" stroke-width="2" d="M810.363 190.845c11.8-5.61 24.47-13.95 40-20m-40 20c11.25-5.15 22.9-10.47 40-20m0 0c5.31-22.97 13.03-45.51 20-60m-20 60c4.73-17.66 11.88-36.04 20-60m0 0c15.78 40.37 33.41 76.56 40 100m-40-100c11.95 30.23 25.09 60.79 40 100m0 0c10.3-1.48 20.9-2.03 40 0m-40 0c9.39.23 20.4-.69 40 0m0 0c16.79-7.95 28.91-17.44 40-20m-40 20c9.99-4.53 21.04-10.79 40-20m0 0c16.69-.63 31.55-.7 40 0m-40 0c10.63-.14 21.75.22 40 0m0 0c10.48-11.86 23.33-24.23 40-40m-40 40c11.38-12.68 22.06-24.05 40-40m0 0c5.75 14.42 8.89 31.46 20 60m-20-60c5.65 15.45 11.18 31.72 20 60"/><g fill="none" fill-rule="evenodd" stroke-linecap="round"><path stroke="#a5d8ff" stroke-width=".5" d="M234.66 31.601q0 0 0 0m0 0q0 0 0 0m-9.44 16.96c4.02-4.56 7.69-6.47 13.12-15.09m-13.12 15.09c5.54-6.64 9.94-12.52 13.12-15.09m-22.57 32.05c7.77-5.7 13.35-12.03 25.59-29.43m-25.59 29.43c7.01-7.63 12.1-14.54 25.59-29.43m-35.04 46.4c11.82-15.51 26.56-28.11 38.71-44.53m-38.71 44.53c12.8-16.09 27.66-31.36 38.71-44.53m-48.15 61.49c20.99-24.47 39.13-44.02 51.17-58.87m-51.17 58.87c16.92-20.31 33.25-38.31 51.17-58.87m-61.27 76.59c12-14.55 26.71-30.22 64.95-74.72m-64.95 74.72c19.55-22.57 37.62-45.3 64.95-74.72m-74.4 91.68c15.18-19.71 32.92-40.01 77.41-89.05m-77.41 89.05c17.61-21.87 36.17-42.4 77.41-89.05m-86.86 106.02c17.29-22.94 36.72-44.01 89.88-103.4m-89.88 103.4c35.6-39.54 71.55-79.85 89.88-103.4m-94.07 114.32c27.55-30.08 52.31-58.9 97.09-111.69m-97.09 111.69c38.76-44.2 77.03-89.56 97.09-111.69m-89.48 109.03c20-21.14 41.42-44.85 92.5-106.41m-92.5 106.41c29.85-33.46 57.52-65.78 92.5-106.41m-84.24 103c32.87-35.79 63.9-74.39 87.26-100.38m-87.26 100.38c26.7-30.43 51.94-60.96 87.26-100.38m-78.99 96.97c23.1-27.06 47.51-54.95 82.01-94.34m-82.01 94.34c24.36-28.98 49.9-58.2 82.01-94.34m-74.4 91.68c13.99-17.99 32.96-34.69 76.76-88.3m-76.76 88.3c28-31.37 56.69-63.97 76.76-88.3m-68.49 84.89c26.34-25.84 49.34-57.08 70.85-81.51m-70.85 81.51c25.84-30.77 52.3-60.74 70.85-81.51m-63.24 78.85c22.55-27.99 47.49-54.53 66.26-76.23m-66.26 76.23c17.21-20.63 36.49-42.99 66.26-76.23m-57.99 72.81c15.17-20.01 31.77-36.17 60.36-69.43m-60.36 69.43c14.97-17.75 30.55-35.28 60.36-69.43m-52.09 66.02c12.99-15.62 28.12-35.26 54.45-62.64m-54.45 62.64c15.34-15.97 27.99-32.17 54.45-62.64m-46.84 59.98c11.47-16.47 26.44-30.5 49.86-57.36m-49.86 57.36c10.47-13.12 22.14-24.71 49.86-57.36m-41.6 53.95c10.82-12.31 26.68-30.05 43.96-50.57m-43.96 50.57c17.21-19.2 33.61-39.28 43.96-50.57m-36.34 47.91c10.13-12.42 18.65-22.83 38.05-43.77m-38.05 43.77c11.68-14.03 23.48-27.26 38.05-43.77m-29.79 40.36c12.74-16.07 25.74-29.77 32.15-36.99m-32.15 36.99c9.36-10.17 17.39-21.1 32.15-36.99m-24.54 34.33c6.33-9.56 15.71-18.84 26.25-30.19m-26.25 30.19c9.15-10.28 17.15-19.26 26.25-30.19m-17.98 26.77c4.04-5.75 9.82-10.96 20.34-23.39m-20.34 23.39c5.22-5.87 9.71-9.81 20.34-23.39m-12.07 19.98c3.5-6.1 11.83-11.05 13.78-15.85m-13.78 15.85c2.38-4.17 5.95-6.76 13.78-15.85m-6.17 13.19c2.33-2.58 3.96-6.33 7.87-9.06m-7.87 9.06c1.94-1.37 3.08-3.35 7.87-9.06m.4 5.65c.21-.13.52-.43 1.31-1.51m-1.31 1.51c.34-.38.63-.77 1.31-1.51m-139.58 54.89q0 0 0 0m0 0q0 0 0 0m4.13-1.71c-.6-.68-1.47-1.38-2.26-1.96m2.26 1.96c-.71-.53-1.53-1.17-2.26-1.96m6.4.26c-1.99-.89-3.31-3.21-4.53-3.94m4.53 3.94c-1.23-1.1-2.84-2.26-4.53-3.94m8.66 2.23c-2.7-2.01-4.3-3.17-6.04-5.25m6.04 5.25a86 86 0 0 1-6.04-5.25m10.17 3.54c-2.07-1.92-4.11-3.59-8.3-7.21m8.3 7.21c-2.54-1.75-4.15-3.66-8.3-7.21m13.19 6.16c-3.29-3.75-7.31-5.73-11.32-9.84m11.32 9.84c-3.98-3.06-7.59-5.55-11.32-9.84m15.46 8.14c-3.92-3.05-8.4-8.1-13.59-11.81m13.59 11.81c-4.29-2.46-7.11-5.62-13.59-11.81m17.72 10.1c-5.9-4.95-9.7-8.63-15.85-13.78m15.85 13.78c-5.62-4.34-9.29-8.52-15.85-13.78m19.98 12.07c-3.42-3.69-6.55-7.34-18.11-15.74m18.11 15.74c-5.72-4.03-10.39-8.31-18.11-15.74m22.25 14.04c-8.24-3.96-11.93-10.02-19.62-17.06m19.62 17.06c-7.38-6.16-15.31-13.11-19.62-17.06m23.75 15.35c-10.06-8.11-17.22-12.42-21.89-19.03m21.89 19.03c-7.83-5.43-12.86-11.52-21.89-19.03m26.02 17.32c-6.57-6.49-15.19-14.29-24.15-20.99m24.15 20.99c-7.66-7.03-15.13-12.53-24.15-20.99m28.29 19.29c-7.84-6.3-14.04-13.36-26.42-22.97m26.42 22.97c-8.82-7.23-19.03-16.02-26.42-22.97m30.55 21.26c-7.41-6.62-15.3-12.64-28.68-24.93m28.68 24.93c-10.97-10.84-23.37-20.08-28.68-24.93m33.57 23.88c-12.91-12.04-25.03-21.29-31.7-27.56m31.7 27.56c-9.16-8.58-18.6-17.16-31.7-27.56m35.83 25.85c-9.8-8.97-17.7-13.87-33.2-28.87m33.2 28.87c-8.5-7.69-19.18-16.43-33.2-28.87m37.34 27.16c-10.41-9.84-19.79-15.88-35.47-30.83m35.47 30.83c-10.21-9.84-22.82-18.7-35.47-30.83m39.6 29.13c-5.96-8.44-16.93-11.72-37.73-32.81m37.73 32.81a1511 1511 0 0 0-37.73-32.81m41.87 31.1c-14.13-12.47-27.52-22.63-40-34.77m40 34.77c-10.07-9.97-21.31-18.16-40-34.77m44.13 33.06c-14.6-12.09-23.68-22-42.26-36.73m42.26 36.73c-11.43-10.6-22.21-19.95-42.26-36.73m46.39 35.03c-8.15-9.03-19.04-16.01-44.53-38.71m44.53 38.71c-10.82-9.54-20.43-18.02-44.53-38.71m48.67 37c-8.97-9.18-22.4-18.84-46.04-40.02m46.04 40.02c-13.97-11.61-26.67-23.98-46.04-40.02m50.17 38.31c-17.73-15.29-36.54-29.06-48.3-41.98m48.3 41.98c-13.37-10.63-27.07-22.6-48.3-41.98m53.19 40.93c-12.12-9.86-23.43-20.31-51.32-44.61m51.32 44.61c-18.48-15.09-34.89-32.66-51.32-44.61m55.45 42.91c-21.78-18.07-42.14-35.16-53.58-46.58m53.58 46.58c-21.36-18.25-40.49-36.15-53.58-46.58m57.72 44.87c-21.42-18.39-43.05-36.96-55.85-48.55m55.85 48.55c-19-16.63-38.84-32.56-55.85-48.55m59.98 46.84c-14.28-12.88-27.68-23.31-58.11-50.51m58.11 50.51c-22.04-19.24-45.81-39.36-58.11-50.51m62.24 48.81c-20.02-16.83-34.96-30.02-59.62-51.83m59.62 51.83c-14.19-10.95-28.14-22.94-59.62-51.83m63.76 50.12c-24.55-19.01-44.75-40.52-61.89-53.8m61.89 53.8c-15.91-13.79-32.24-27.51-61.89-53.8m66.02 52.09c-16.27-17.31-34.93-33.05-64.15-55.76m64.15 55.76c-22.81-21.72-48.25-41.55-64.15-55.76m68.28 54.06c-15.98-12.65-33.78-27.14-66.41-57.74m66.41 57.74c-24.15-19.02-47.31-39.71-66.41-57.74m70.55 56.03c-21.81-21.26-45.75-40.32-68.68-59.7m68.68 59.7c-14.95-12.72-27.65-24.53-68.68-59.7m73.57 58.65c-17.51-15.76-35.51-31.01-71.7-62.33m71.7 62.33c-27.28-23.66-55.88-47.08-71.7-62.33m75.83 60.62c-23.91-21.17-44.44-39.13-73.21-63.64m73.21 63.64c-24.46-21.21-48.14-42.13-73.21-63.64m71.31 56.69c-19.72-19.78-43.16-37.66-69.44-60.36m69.44 60.36c-19.62-18.03-39.22-34.81-69.44-60.36m65.27 51.43c-17.03-15.86-33.51-30.73-63.4-55.11m63.4 55.11c-15.02-13.94-31.1-27.21-63.4-55.11m57.72 44.88c-16.77-11.7-31.11-28.82-55.85-48.55m55.85 48.55c-18.51-16.11-36.97-30.71-55.85-48.55m45.64 34.38c-10.15-9.02-24.86-20.8-43.77-38.05m43.77 38.05c-16.7-14.86-33.76-29.2-43.77-38.05"/><path stroke="#1e1e1e" d="M161.37 162.661c24.78-44.11 48.34-88.93 73.57-131.39m-73.57 131.39c21.08-39.38 43.39-80.2 73.57-131.39m0 0c4.41 2.7 8.65 5.56 16.96 11.81m-16.96-11.81c4.54 3.1 8.46 5.74 16.96 11.81m0 0c4.11 4.07 11.35 9.96 16.26 13.58m-16.26-13.58c3.56 2.73 8.85 7.4 16.26 13.58m0 0c4.51 3.9 8.74 9.77 17.84 21.66m-17.84-21.66c3.51 5.7 9.5 10.5 17.84 21.66m0 0c1.99 8.45 8.83 15.04 11.37 20.47M286 78.321c3.51 7.74 9.12 15.28 11.37 20.47m0 0c-.06 1.51 1.03 3.43 3.98 9.66m-3.98-9.66c.98 3.23 2.45 7.49 3.98 9.66m0 0c-37.13 13.77-74.01 28.87-139.98 54.21m139.98-54.21c-35.65 13.47-71.53 26.85-139.98 54.21m0 0q0 0 0 0m0 0q0 0 0 0"/></g><g fill="none" fill-rule="evenodd" stroke-linecap="round"><path stroke="#b2f2bb" stroke-width=".5" d="M51.134 57.574q0 0 0 0m0 0q0 0 0 0m-25.85 35.83c15.87-19.49 28.99-36.48 43.3-49.81m-43.3 49.81c17.37-18.87 32.72-39.11 43.3-49.81m-46.84 59.99c20.52-20.97 37.55-45.03 58.39-67.17m-58.39 67.17c15.23-16.41 28.73-33.48 58.39-67.17m-61.93 77.34c22.83-24.92 44.47-51.1 67.57-77.74m-67.57 77.74c18.2-21.13 37.01-42.13 67.57-77.74m-69.8 86.4c19.93-22.55 37.77-40.72 72.16-83.02m-72.16 83.02c22.69-25.32 45.49-51.37 72.16-83.02m-74.39 91.68c15.74-19.74 36.54-42.75 76.76-88.3m-76.76 88.3c27.28-29.68 52.65-60.41 76.76-88.3m-78.33 96.21c25.54-31.02 54.36-61.71 80.03-92.08m-80.03 92.08c21.8-24.78 43.76-48.28 80.03-92.08m-80.95 99.23c18.45-20.82 32.63-38.33 83.32-95.85m-83.32 95.85c22.35-25.63 45.78-50.6 83.32-95.85m-83.58 102.25c32.2-35.36 63.81-72.7 85.94-98.87m-85.94 98.87c33.1-38.24 64.71-75.2 85.94-98.87m-86.21 105.27c19.82-23.32 42.07-49.82 87.92-101.14m-87.92 101.14c23.88-30.37 49.03-58.97 87.92-101.14m-87.52 106.78c29.03-30.76 55.04-60.39 89.88-103.4m-89.88 103.4c28.28-33.32 55.54-64.85 89.88-103.4m-90.14 109.8c24.27-30.61 47.48-58.31 92.5-106.42m-92.5 106.42c30.17-35.05 60.77-69.79 92.5-106.42m-92.11 112.06c20.64-24.49 41.48-46.06 93.82-107.92m-93.82 107.92c21.98-27 45.27-53 93.82-107.92m-92.77 112.81c23.32-28.71 48.07-57.48 95.13-109.43m-95.13 109.43c27.17-29.9 54.53-61.13 95.13-109.43m-94.73 115.07c38.02-43.25 77.54-88.02 97.09-111.7m-97.09 111.7c21.08-23.92 41.17-46.81 97.09-111.7m-96.04 116.59c39.1-42 72.15-84.11 97.75-112.45m-97.75 112.45c30.16-34.6 60.79-70.25 97.75-112.45m-96.7 117.34c41.35-44.15 78.76-88.84 99.06-113.96m-99.06 113.96c35.03-42.11 70.32-82.04 99.06-113.96m-98.01 118.85c37.13-43.66 76.01-87.24 100.38-115.47m-100.38 115.47c38.08-43.21 75.04-84.89 100.38-115.47m-98.67 119.6c37.55-42.32 79.42-89.63 100.37-115.47m-100.37 115.47c23.89-28.9 48.28-57.08 100.37-115.47m-98.67 119.6c39.98-47.56 80.81-93.34 101.04-116.22m-101.04 116.22c28.15-32.21 55.68-63.84 101.04-116.22m-99.33 120.36c27.27-28.69 49.17-56.59 101.69-116.98m-101.69 116.98c39.85-45.8 79.12-90.7 101.69-116.98m-99.98 121.11c24.27-25.03 43.27-50.84 101.69-116.98m-101.69 116.98c23.8-27.75 49.02-55.11 101.69-116.98m-99.99 121.11c24.69-24.53 46.16-51.21 102.35-117.73m-102.35 117.73c29.24-34.05 59.56-69.21 102.35-117.73m-100.64 121.87c37.36-41.32 73.37-87.9 103-118.49m-103 118.49c33.9-38.02 66.8-76.83 103-118.49m-101.29 122.62c30.52-34.67 60.4-71.39 103.65-119.24m-103.65 119.24c25.66-28.64 50.05-56.18 103.65-119.24m-101.95 123.38c21.26-25.87 44.67-52.12 103.66-119.25m-103.66 119.25c41.03-46.86 83.55-94.43 103.66-119.25m-101.29 122.62c20.75-25.06 42.14-49.83 103.65-119.24m-103.65 119.24c27.71-31.94 56.42-66.28 103.65-119.24m-101.95 123.38c31.71-33.36 57.94-67.61 104.32-120m-104.32 120c39.26-43.75 77.84-88.66 104.32-120m-101.95 123.38c24.94-31.33 50.57-60.16 103.65-119.25m-103.65 119.25c25-27.46 48.47-56.09 103.65-119.25m-101.29 122.63c35.95-42.82 70.36-83.97 103.66-119.25m-103.66 119.25c38.32-45.21 78.12-90.19 103.66-119.25m-100.64 121.87c22.98-29.28 48.16-58.74 103-118.49m-103 118.49c32.94-39.08 67.92-77.29 103-118.49m-100.64 121.87c33.06-38.31 65.73-77.02 102.35-117.74m-102.35 117.74c36.99-42.17 76.35-86.81 102.35-117.74m-99.99 121.12c36.64-44.05 73.33-86.1 102.35-117.74m-102.35 117.74c34.93-37.4 68.32-76.78 102.35-117.74m-99.33 120.36c40.07-45.78 82.77-93.34 101.69-116.98m-101.69 116.98c33.47-39.93 66.3-78.71 101.69-116.98m-99.33 120.36c40.07-43.29 78.23-88.31 101.04-116.22m-101.04 116.22c22.67-26.38 45.38-50.16 101.04-116.22m-98.02 118.85c30.25-30.24 56.48-63.53 100.38-115.47m-100.38 115.47c29.08-34.01 56.31-66.79 100.38-115.47m-98.01 118.84c34.66-38.57 64.84-74.72 100.37-115.47m-100.37 115.47c30.06-36.82 60.92-70.85 100.37-115.47m-97.35 118.1c31.3-35.04 61.65-71.89 99.06-113.96m-99.06 113.96c23.48-28.52 49.7-56.94 99.06-113.96m-97.79 114.83q0 0 0 0m0 0q0 0 0 0m2.63-3.02c-7.86-7.85-14.86-13.38-23.4-20.34m23.4 20.34c-6.64-5.89-14.01-11.27-23.4-20.34m26.02 17.32c-9.02-4.37-14.18-11.14-34.72-30.18m34.72 30.18c-9.02-7.18-17.26-14.66-34.72-30.18m37.34 27.16c-14.37-13.95-30.53-25.81-41.5-36.08m41.5 36.08c-8.14-8.05-16.64-14.74-41.5-36.08m44.13 33.06c-16.51-15.39-32.5-29.9-47.55-41.33m47.55 41.33c-11.95-11.88-23.95-21.69-47.55-41.33m50.17 38.31c-12.03-12.95-26.89-24.53-53.58-46.58m53.58 46.58c-14.84-13.79-31.78-26.42-53.58-46.58m56.21 43.56c-11.23-9.16-23.64-21.01-60.38-52.48m60.38 52.48c-14.6-12.82-28.17-23.32-60.38-52.48m63 49.46c-13.62-14.89-31.23-27.99-64.9-56.42m64.9 56.42c-24.09-20.24-46.53-40.04-64.9-56.42m67.53 53.41c-13.04-13.56-29.05-23.86-68.68-59.71m68.68 59.71c-23.05-18.52-43.35-37.75-68.68-59.71m71.3 56.69c-29.36-25.2-53.79-50.23-71.7-62.33m71.7 62.33c-20.53-18.74-42.65-37.98-71.7-62.33m74.32 59.31c-18.11-16.13-39.97-35.81-75.47-65.61m75.47 65.61c-28.69-24.89-59.37-50.68-75.47-65.61m78.1 62.59c-22.52-18.69-46.68-38.04-79.25-68.89m79.25 68.89c-25.72-21.7-52.7-43.84-79.25-68.89m81.87 65.87c-22.15-18.11-44.39-39.86-81.51-70.85m81.51 70.85c-26.16-22.57-51.46-46.23-81.51-70.85m84.14 67.83c-29.48-25.65-63.29-56.34-84.53-73.48m84.53 73.48c-31.59-27.38-63.08-53.99-84.53-73.48m87.91 71.12c-19.3-16.61-40-31.59-88.3-76.76m88.3 76.76c-23.94-21.23-48.67-43.45-88.3-76.76m90.92 73.74c-31.46-31.37-67.84-59.42-89.81-78.07m89.81 78.07c-17.1-15.68-36.07-32.07-89.81-78.07m92.43 75.05c-19.5-18.34-41.95-37.95-92.07-80.04m92.07 80.04c-21.05-18.29-42.9-36.56-92.07-80.04m94.7 77.02c-27.98-21.97-52.95-44.57-94.34-82.01m94.34 82.01c-33.6-27.91-68.43-57.7-94.34-82.01m96.96 78.99c-33.32-28.34-69.61-58.76-96.6-83.97m96.6 83.97c-24.26-19.64-49.21-41.28-96.6-83.97m99.23 80.95c-35.62-31.94-71.47-62.42-98.12-85.28m98.12 85.28c-20.36-18.65-41.54-38.97-98.12-85.28m100.74 82.27c-36.91-29.82-71.17-64.35-99.62-86.6m99.62 86.6c-19.97-15.63-40.03-33.21-99.62-86.6m102.25 83.58c-40.39-30.66-78.82-64.63-101.14-87.92m101.14 87.92c-30.49-27.69-62.3-53.89-101.14-87.92m103.76 84.9c-33.82-33.77-72.1-65.22-102.64-89.23m102.64 89.23c-24.67-23.01-48.16-43.7-102.64-89.23m105.26 86.21c-38.66-33.06-78.45-64.08-104.15-90.54m104.15 90.54c-20.93-17.88-41.83-34.93-104.15-90.54m106.78 87.52c-40.33-32.58-79.69-68.6-105.66-91.85m105.66 91.85c-35.56-31.89-69.92-61.91-105.66-91.85m108.28 88.83c-20.77-19.88-44.6-36.69-107.17-93.16m107.17 93.16c-23.43-20.87-47.35-41.93-107.17-93.16m109.8 90.14c-35.69-33.56-74.19-62.3-107.93-93.81m107.93 93.81c-35.07-32.7-71.59-62.58-107.93-93.81m110.55 90.79c-31.41-29.56-65.2-58.04-109.43-95.13m109.43 95.13c-38.83-31.07-74.57-64.42-109.43-95.13m112.06 92.11c-42.94-36.44-82.25-72.62-110.95-96.44m110.95 96.44c-34.75-30.92-70.38-61.46-110.95-96.44m113.57 93.43c-30.13-30.65-63.66-55.17-110.94-96.45m110.94 96.45c-30.65-26.11-61.99-54-110.94-96.45m114.32 94.08c-29.81-24.72-61.38-50.65-112.45-97.75m112.45 97.75c-25.15-20.1-50.92-43.46-112.45-97.75m115.07 94.73c-37.24-29.41-71.91-63.23-112.45-97.75m112.45 97.75c-23.36-21.48-46.5-42.16-112.45-97.75m115.08 94.74c-42.02-36.69-83.43-72.05-113.21-98.41m113.21 98.41c-24.56-20.98-49.6-42.56-113.21-98.41m115.83 95.39c-47.05-40.14-91.93-77.89-113.96-99.07m113.96 99.07c-27.15-25.62-56.19-50.49-113.96-99.07m116.59 96.05c-35.51-31.17-68.28-59.37-113.97-99.07m113.97 99.07c-40.64-34.39-79.5-68.62-113.97-99.07m116.59 96.05c-23.95-21.15-46.78-44.06-113.96-99.07m113.96 99.07c-39.39-33.43-79.48-69.44-113.96-99.07m116.58 96.05c-31.3-29.16-64.36-58.5-113.96-99.07m113.96 99.07c-31.19-28.4-63.96-53.95-113.96-99.07m116.59 96.05c-34.56-29.59-72.07-61.28-113.96-99.06m113.96 99.06c-29.59-23.69-57.22-50.33-113.96-99.06m112.05 92.11c-22.71-19.01-50.22-43.28-109.43-95.13m109.43 95.13c-36.92-32.92-74.14-66.35-109.43-95.13m103 84.23c-36.68-30.49-72.56-62.75-100.37-87.25m100.37 87.25c-29.4-26.04-58.47-51.31-100.37-87.25m93.94 76.36c-35.57-30.05-70.18-58.79-91.32-79.38m91.32 79.38c-27.58-24.28-55.28-49.13-91.32-79.38m84.89 68.49c-19.94-18.45-41.32-36.77-82.27-71.51m82.27 71.51c-32.88-28.47-65.08-56.58-82.27-71.51m75.84 60.62c-19.56-17.55-41.25-35.58-72.46-62.98m72.46 62.98c-15.29-13.45-29.3-25.88-72.46-62.98m66.02 52.09c-13.07-13.23-27.07-23.49-63.39-55.11m63.39 55.11c-20.21-18.24-40.51-34.95-63.39-55.11m56.96 44.22c-13.78-11.54-25.36-22.94-53.58-46.58m53.58 46.58c-14.47-14.02-30.76-27.59-53.58-46.58m47.15 35.68c-12.61-9.5-24.12-21.07-43.77-38.05m43.77 38.05c-17.01-14.02-33.78-28.38-43.77-38.05m37.34 27.16c-10.85-7.86-21.24-17.95-33.97-29.52m33.97 29.52c-10.77-9.93-21.48-19.43-33.97-29.52m27.53 18.63c-6.34-6.07-10.88-7.99-24.15-20.99m24.15 20.99c-7.66-5.88-14.27-13.63-24.15-20.99m17.72 10.1c-6.63-6.11-10.26-10.72-14.34-12.46m14.34 12.46c-2.52-1.63-5.52-4.6-14.34-12.46m7.91 1.57c-.96-.65-1.12-.9-3.77-3.28m3.77 3.28c-1.05-.81-1.58-1.53-3.77-3.28"/><path stroke="#1e1e1e" d="M160.904 162.274c-24.13-42.11-50.11-83.39-76.47-129.37m76.47 129.37c-17.37-28.95-34.74-57.6-76.47-129.37m0 0c-5.73 3.52-10.8 5.93-18.97 11.5m18.97-11.5c-3.77 2.43-8.68 4.2-18.97 11.5m0 0c-5.43 3.07-8.45 9.75-14.38 13.23m14.38-13.23c-2.66 2.41-6.73 6.08-14.38 13.23m0 0c-4.54 4.11-5.06 8.29-14.95 18.4m14.95-18.4c-3.6 3.61-6.7 8.14-14.95 18.4m0 0c-4.4 4.81-7.15 9.04-11.27 17.27m11.27-17.27c-2.08 3.71-4.84 6.56-11.27 17.27m0 0c-.18 5.96-1.57 8.64-7.13 20.1m7.13-20.1c-2.1 7.58-4.14 14.14-7.13 20.1m0 0c.09 5.48-2.47 9.62-6.32 25.3m6.32-25.3c-.63 5.18-1.96 9.71-6.32 25.3m0 0c-1.9 5.16.27 10.11-1.15 15.52m1.15-15.52c-.15 4.25-1.48 8.89-1.15 15.52m0 0c-.73 6.08 1.51 11.86.57 20.7m-.57-20.7c-.34 6.4 1.34 12.7.57 20.7m0 0c1.22 6.61 1.71 9.09 2.3 16.1m-2.3-16.1c.53 6.19 1.85 10.35 2.3 16.1m0 0c1.04 3.98 1.14 7.73 3.87 14.34m-3.87-14.34c1.15 4.67 3.24 10.23 3.87 14.34m0 0c3 3.83 2.89 9.26 6.48 15.56m-6.48-15.56c1.87 5.5 4.99 10.52 6.48 15.56m0 0c3.95 5.67 3.91 11.51 8.63 19.54m-8.63-19.54c3.53 6.39 5.77 14.45 8.63 19.54m0 0c5.82 6.41 8.97 12.37 10.92 14.38m-10.92-14.38c3.28 4.54 6.3 9.56 10.92 14.38m0 0c1.88 2.15 4.3 4.9 8.63 10.12m-8.63-10.12c3.73 3.84 6.66 7.22 8.63 10.12m0 0c2.16 1.38 4.93 3.15 9.2 8.85m-9.2-8.85c2.97 2.19 6.35 5.6 9.2 8.85m0 0c35.25-39.88 72.62-77.56 100.04-111.54m-100.04 111.54c30-34.13 59.07-66.21 100.04-111.54m0 0q0 0 0 0m0 0q0 0 0 0"/></g><g fill="none" fill-rule="evenodd" stroke-linecap="round"><path stroke="#ffec99" stroke-width=".5" d="M84.653 31.674q0 0 0 0m0 0q0 0 0 0m2.36 3.38c2.69-2.07 5.47-4.46 7.87-9.05m-7.87 9.05c2.71-3.1 5.47-7.26 7.87-9.05m-6.16 13.19c2.19-3.49 9.38-10.84 14.43-16.61m-14.43 16.61c4.9-4.83 7.2-9.47 14.43-16.61m-12.07 19.98c5.09-5.73 11.62-13.67 20.99-24.15m-20.99 24.15c5.4-4.95 8.95-11.61 20.99-24.15m-18.63 27.53c8.64-11.06 16.14-21.27 24.93-28.68m-24.93 28.68c9.86-11.86 20.52-21.9 24.93-28.68m-23.22 32.82c9.55-11.64 21.1-21 30.18-34.72m-30.18 34.72c8.9-9.43 17.75-18.98 30.18-34.72m-27.82 38.1c8.93-9.57 18.73-19.74 34.12-39.25m-34.12 39.25c10.14-10.49 19.68-21.95 34.12-39.25m-32.41 43.38c11.75-13.03 22.1-22.75 39.36-45.28m-39.36 45.28c14.03-17.1 28.44-32.67 39.36-45.28m-37 48.66c13.92-16.9 31.42-32.75 43.3-49.81m-43.3 49.81c12.12-14.33 23.01-26.5 43.3-49.81m-40.94 53.19c8.96-9.98 19.14-22.2 46.58-53.59m-46.58 53.59c9.42-12.31 21.25-24.91 46.58-53.59m-44.87 57.72c13.36-18.51 30.73-34.57 50.52-58.11m-50.52 58.11c12.21-15.01 26.01-27.99 50.52-58.11m-48.16 61.49c12.45-15.49 29.52-31.18 53.14-61.13m-53.14 61.13c18.15-20.74 37.68-43.06 53.14-61.13m-50.78 64.51c15.92-18.89 28.18-33.41 55.77-64.15m-55.77 64.15c14.39-15.74 28.55-31.75 55.77-64.15m-54.06 68.28c18.01-17.99 34.37-38.24 58.39-67.17m-58.39 67.17c14.56-15.7 29.33-32.28 58.39-67.17m-56.03 70.55c13.71-16.92 31.04-38.86 61.02-70.19m-61.02 70.19c16.06-19.45 33.95-36.97 61.02-70.19m-58.65 73.57c24.58-27.32 46.57-51.69 63.63-73.21m-63.63 73.21c25.1-26.79 49.77-55.41 63.63-73.21m-61.93 77.34c20.29-20.79 36.48-42.8 66.27-76.22m-66.27 76.22c14.46-17.28 29.86-34.42 66.27-76.22m-63.9 79.6c19.59-26.03 42.93-49.29 68.23-78.49m-68.23 78.49c20.06-23.27 39.74-45.86 68.23-78.49m-65.87 81.87c26.72-29.21 50.74-59.01 70.2-80.75m-70.2 80.75c14.35-15.47 28.86-33.22 70.2-80.75m-68.49 84.89c25.18-30.31 47.92-55.65 72.82-83.78m-72.82 83.78c17.06-19.52 32.65-38.4 72.82-83.78m-70.46 87.16c26.76-30.92 55.64-62.92 74.79-86.04m-74.79 86.04c16.01-19.39 33.63-39.48 74.79-86.04m-72.43 89.41c19.93-21.35 38.75-43.75 76.76-88.3m-76.76 88.3c21.85-27.28 46.38-54.38 76.76-88.3m-75.05 92.44c26.65-33.85 57.67-67.05 79.38-91.32m-79.38 91.32c24.51-26.49 46.53-54.1 79.38-91.32m-77.02 94.7c30.88-37.38 61.24-70.87 80.7-92.83m-80.7 92.83c31.35-36.28 63.24-73.7 80.7-92.83m-78.34 96.21c25.19-29.89 51.44-58.01 82.67-95.1m-82.67 95.1c23.88-28.05 49.6-57.31 82.67-95.1m-80.96 99.23c24.33-27.27 49.5-55.64 84.63-97.36m-84.63 97.36c17.28-18.48 34.69-38.55 84.63-97.36m-82.27 100.74c24.89-26.98 47.65-53.16 85.95-98.87m-85.95 98.87c29.53-34.72 60.22-69.08 85.95-98.87m-83.58 102.25c27.02-33.09 52.2-61.95 87.25-100.38m-87.25 100.38c18.12-19.89 35.95-39.39 87.25-100.38m-85.55 104.51c28.14-32.77 51.88-63.04 89.23-102.64m-89.23 102.64c20.9-25.14 43.36-49.07 89.23-102.64m-86.86 106.02c26.15-28.87 48.01-57.14 83.32-95.85m-83.32 95.85c24.45-27.95 48.41-57.43 83.32-95.85m-80.96 99.23c23.57-28.05 47.45-53.43 70.85-81.51m-70.85 81.51c25.44-29.14 52.36-59.2 70.85-81.51m-69.14 85.64c19.31-24.76 42.34-47.38 59.7-68.68m-59.7 68.68c20.63-23.17 41.18-47.34 59.7-68.68m-57.34 72.06c8.38-11.48 21.05-23.65 47.23-54.34m-47.23 54.34c10.51-11.58 19.7-22.62 47.23-54.34m-44.87 57.72c9.04-9.96 22-21.05 34.77-40m-34.77 40c8.1-10.67 17.33-18.58 34.77-40m-33.06 44.13c7.28-10.33 17.25-19.8 22.96-26.41m-22.96 26.41c7.06-7.33 13.85-16.62 22.96-26.41m-20.6 29.79c5.04-4.13 7.33-9.33 10.5-12.07m-10.5 12.07c2.49-2.75 5.49-6.52 10.5-12.07m-9.14 14.58q0 0 0 0m0 0q0 0 0 0m1.87-3.67c-2.98-1.44-4.76-4.4-8.3-7.22m8.3 7.22c-2.64-2.51-4.96-4.13-8.3-7.22m10.17 3.54c-4.73-4.69-13.29-10.29-16.6-14.43m16.6 14.43c-4.18-4.54-10.08-8.49-16.6-14.43m19.22 11.41c-9.63-7.44-15.21-12.35-25.66-22.3m25.66 22.3c-8.64-7.37-19.37-16.02-25.66-22.3m27.53 18.63c-7.1-7.86-16.14-14.84-33.96-29.53m33.96 29.53c-8.93-7.8-17.66-15.91-33.96-29.53m35.83 25.85c-12.38-11.26-23.79-22.26-42.26-36.74m42.26 36.74c-12.65-10.59-24.64-21.15-42.26-36.74m44.13 33.07c-10.34-10.89-24.11-20.38-50.56-43.96m50.56 43.96c-17.28-14.83-31.94-28.21-50.56-43.96m52.43 40.28c-14.7-13.37-31.22-24.17-58.11-50.51m58.11 50.51c-13.34-10.91-26.02-22.91-58.11-50.51m60.74 47.49c-24.12-22.03-47.36-40.4-67.17-58.39m67.17 58.39c-26.77-24.43-53.21-46.27-67.17-58.39m69.04 54.72c-23.11-18.9-47.82-38.9-75.48-65.61m75.48 65.61c-23.92-21.92-47.59-42.22-75.48-65.61m77.34 61.93c-31.09-25.84-61.47-54.33-83.77-72.82m83.77 72.82c-31.88-27.69-65.16-55.65-83.77-72.82m85.64 69.15c-33.94-28.43-66.56-59.19-92.07-80.04m92.07 80.04c-26.29-23.29-50.98-43.71-92.07-80.04m93.94 76.36c-36.69-30.03-70.49-58.27-100.37-87.25m100.37 87.25c-25.36-25.13-52.5-46.94-100.37-87.25m103 84.23c-23.26-18.87-46.65-40.97-98.87-85.94m98.87 85.94c-33.09-27.51-64.71-57.2-98.87-85.94m100.74 82.27c-39.65-32.47-75.65-67.99-97.36-84.63m97.36 84.63c-38.66-34.11-77.05-68.38-97.36-84.63m99.23 80.95c-32.9-29.38-63.42-58.79-95.1-82.66m95.1 82.66c-18.41-14.98-38.31-31.21-95.1-82.66m96.97 78.99c-36.48-30.68-70.73-61.03-93.59-81.35m93.59 81.35c-20.89-16.98-40.9-34.89-93.59-81.35m95.46 77.67c-35.77-28.31-67.97-59.51-91.32-79.38m91.32 79.38c-24.08-22.01-51.09-43.78-91.32-79.38m93.94 76.37c-22.66-17.71-44.9-36.94-89.81-78.07m89.81 78.07c-28.93-26.65-58.27-51.34-89.81-78.07m91.68 74.39c-20.79-17.13-42.38-37.67-87.55-76.1m87.55 76.1c-35.2-30.65-69.91-59.66-87.55-76.1m89.42 72.43c-20.13-18.11-41.41-36.37-84.53-73.48m84.53 73.48c-17.22-16.11-34.08-30.7-84.53-73.48m86.4 69.8c-28.02-24.22-59.23-50.62-81.51-70.85m81.51 70.85c-25.04-23.9-52.95-45.29-81.51-70.85m83.38 67.18c-22.3-18.65-43.38-40.89-78.49-68.23m78.49 68.23c-27.22-22.45-51.84-45.15-78.49-68.23m80.36 64.55c-22.16-20.94-48.8-42.56-76.98-66.92m76.98 66.92c-18.76-16.76-37.6-32.24-76.98-66.92m79.6 63.9c-19.82-13.83-34.61-29.42-74.71-64.95m74.71 64.95c-17.99-15.81-34.94-31.22-74.71-64.95m76.58 61.28c-15.44-13.3-31.86-27.86-71.7-62.33m71.7 62.33c-19.17-16.79-39.37-33.5-71.7-62.33m73.57 58.65c-16.63-14.18-30.89-27.3-67.92-59.04m67.92 59.04c-15.94-14.25-32.32-28.68-67.92-59.04m69.79 55.37c-25.17-21.81-47.09-40.65-65.66-57.08m65.66 57.08c-24.82-19.81-47.7-41.33-65.66-57.08m67.53 53.4c-17.61-16.01-38.33-33.49-61.13-53.14m61.13 53.14c-19.55-17.72-41.31-35.79-61.13-53.14m63.75 50.12c-20.1-17.2-39.4-36.65-55.84-48.54m55.84 48.54c-18.86-17.92-39.8-34.94-55.84-48.54m57.71 44.87c-20.12-16.73-36.3-32.47-50.56-43.96m50.56 43.96c-13.5-11.93-28.98-24.93-50.56-43.96m52.43 40.28c-18.27-12.92-35.66-31.25-45.28-39.36m45.28 39.36c-17.59-14.76-35.01-30.8-45.28-39.36m47.15 35.69c-14.26-10.61-26.46-24.48-43.77-38.05m43.77 38.05c-15.01-12.94-28.35-25.06-43.77-38.05m45.64 34.37c-14.57-9.72-26.55-22.46-36.98-32.14m36.98 32.14c-7.81-8.12-17.32-14.42-36.98-32.14m39.61 29.13c-14.18-10.22-26.21-19.87-31.7-27.56m31.7 27.56c-9.08-7.78-19.65-18.23-31.7-27.56m33.57 23.88c-9.22-6.2-14.22-13.62-21.89-19.02m21.89 19.02c-7.99-6.52-17.33-13.43-21.89-19.02m23.76 15.35c-2.83-1.24-6.23-3.89-10.57-9.19m10.57 9.19c-3.26-2.41-6.17-6.35-10.57-9.19"/><path stroke="#1e1e1e" d="M160.833 161.504c27.25-43.37 49.37-87.01 73.77-129.73m-73.77 129.73c21.17-34.06 39.51-67.88 73.77-129.73m0 0c-4.84-1.28-10.06-4.24-12.38-6.89m12.38 6.89c-2.39-1.88-5.75-2.23-12.38-6.89m0 0c-4.83-2.02-11-4.53-14.01-5.32m14.01 5.32c-3.29-1.67-5.6-1.71-14.01-5.32m0 0c-4.73.25-9.37-.84-13.07-3.39m13.07 3.39c-4.09-.88-8.82-2.88-13.07-3.39m0 0c-5.83-2.01-8.45-2.28-16.05-3.68m16.05 3.68c-6.67-1.55-12.36-3.71-16.05-3.68m0 0c-6.23-.74-8.42-.25-15.15-1.83m15.15 1.83c-4.65-.63-9.38-1.87-15.15-1.83m0 0c-4.24-.24-5.29-1.36-16.06 0m16.06 0c-4.01.71-9.21-.43-16.06 0m0 0c-7.6-.57-13.75 2.64-19.23 3.73m19.23-3.73c-3.33.25-8.89 1.3-19.23 3.73m0 0c-6.34.59-12.25 4.72-17.01 4.07m17.01-4.07c-3.2 1.48-8.1 1.97-17.01 4.07m0 0c-3.2.62-7.82 3-12.85 5.51m12.85-5.51c-3.35 2-6.75 2.88-12.85 5.51m0 0c-5.7 2.52-7.19 3.21-14.22 7.8m14.22-7.8c-5.99 3.42-10.16 5.46-14.22 7.8m0 0c19.72 35.76 36.93 68.28 76.26 129.73m-76.26-129.73c20.18 34.39 42.36 70.98 76.26 129.73m0 0q0 0 0 0m0 0q0 0 0 0"/></g></svg>